<svg xmlns="http://www.w3.org/2000/svg" xmlns:xlink="http://www.w3.org/1999/xlink" width="152" height="39" viewBox="0 0 152 39"><defs><clipPath id="b"><rect width="152" height="39"/></clipPath></defs><g id="a" clip-path="url(#b)"><g transform="translate(0 -0.407)"><path d="M49.276,15.841a2.487,2.487,0,0,0,.375,1.629A1.874,1.874,0,0,0,51.132,18a1.46,1.46,0,0,0,1.591-1.573h1.444a2.8,2.8,0,0,1-3.092,2.96,3.1,3.1,0,0,1-2.66-1.125,3.745,3.745,0,0,1-.6-2.379V13.537a3.745,3.745,0,0,1,.6-2.379,3.264,3.264,0,0,1,2.716-1.125,3.007,3.007,0,0,1,2.547,1.106,3.256,3.256,0,0,1,.489,1.985H52.742c0-1.029-.412-1.7-1.593-1.7a1.835,1.835,0,0,0-1.5.543,2.457,2.457,0,0,0-.374,1.629v2.249Zm6.153-2.3a3.645,3.645,0,0,1,.618-2.379,3.8,3.8,0,0,1,5.4,0,3.645,3.645,0,0,1,.618,2.379v2.341a3.645,3.645,0,0,1-.618,2.379,3.8,3.8,0,0,1-5.4,0,3.645,3.645,0,0,1-.618-2.379Zm1.461,2.3a2.487,2.487,0,0,0,.375,1.629,2.35,2.35,0,0,0,2.961,0,2.494,2.494,0,0,0,.374-1.629V13.592a2.456,2.456,0,0,0-.375-1.629,2.29,2.29,0,0,0-2.961,0,2.463,2.463,0,0,0-.374,1.629Zm13.3-9.086V19.269H68.918l-.056-.974a2.99,2.99,0,0,1-2.322,1.087A2.911,2.911,0,0,1,64.123,18.3a4.084,4.084,0,0,1-.562-2.472V13.537a3.751,3.751,0,0,1,.6-2.379,3.031,3.031,0,0,1,2.491-1.125,2.807,2.807,0,0,1,2.079.936V6.755ZM65.021,15.71a2.829,2.829,0,0,0,.376,1.742A1.737,1.737,0,0,0,66.84,18a2,2,0,0,0,1.367-.487,2.382,2.382,0,0,0,.524-1.817V13.743a2.429,2.429,0,0,0-.524-1.836,2.033,2.033,0,0,0-1.349-.487,1.73,1.73,0,0,0-1.461.543,2.455,2.455,0,0,0-.376,1.629Zm8.663-8.692V8.5H72.223V7.018Zm0,3.129v9.124H72.223V10.147Zm3.286,0,.075,1.049A3.077,3.077,0,0,1,79.5,10.033a2.943,2.943,0,0,1,2.1.749,3.28,3.28,0,0,1,.806,2.473v6.014H80.942V13.63a2.708,2.708,0,0,0-.3-1.517,1.77,1.77,0,0,0-1.5-.693,1.967,1.967,0,0,0-1.443.543,2.239,2.239,0,0,0-.525,1.78v5.526H75.714V10.145H76.97Zm7.083,3.391a3.757,3.757,0,0,1,.6-2.379,3.82,3.82,0,0,1,5.415,0,3.651,3.651,0,0,1,.618,2.379v5.658c0,2.342-.919,3.69-3.3,3.69a6.283,6.283,0,0,1-.786-.055V21.518a6.039,6.039,0,0,0,.75.056c1.293,0,1.873-.712,1.873-2.211V18.334a2.815,2.815,0,0,1-2.1.935,3,3,0,0,1-2.472-1.123,3.765,3.765,0,0,1-.6-2.38V13.537Zm1.461,2.173a2.462,2.462,0,0,0,.374,1.63,1.775,1.775,0,0,0,1.481.543A1.99,1.99,0,0,0,88.7,17.4a2.4,2.4,0,0,0,.524-1.817V13.592a2.457,2.457,0,0,0-.374-1.629,1.821,1.821,0,0,0-1.481-.543,1.771,1.771,0,0,0-1.48.543,2.457,2.457,0,0,0-.374,1.629Zm11.25-5.564.075.993a3.073,3.073,0,0,1,4.721,0,4.027,4.027,0,0,1,.581,2.453v2.286a3.766,3.766,0,0,1-.618,2.379,2.957,2.957,0,0,1-2.492,1.125,2.815,2.815,0,0,1-2.061-.918v4.2H95.509V10.146Zm.206,5.545a2.379,2.379,0,0,0,.525,1.817,1.89,1.89,0,0,0,1.33.487,1.851,1.851,0,0,0,1.481-.525,2.494,2.494,0,0,0,.374-1.629V13.7a2.764,2.764,0,0,0-.375-1.723,1.812,1.812,0,0,0-1.461-.562,2.031,2.031,0,0,0-1.349.487,2.425,2.425,0,0,0-.525,1.836Zm6.671-2.154a3.645,3.645,0,0,1,.618-2.379,3.8,3.8,0,0,1,5.4,0,3.645,3.645,0,0,1,.618,2.379v2.341a3.645,3.645,0,0,1-.618,2.379,3.8,3.8,0,0,1-5.4,0,3.651,3.651,0,0,1-.617-2.379Zm1.462,2.3a2.488,2.488,0,0,0,.374,1.629,2.349,2.349,0,0,0,2.96,0,2.488,2.488,0,0,0,.374-1.629V13.592a2.457,2.457,0,0,0-.374-1.629,2.288,2.288,0,0,0-2.96,0,2.457,2.457,0,0,0-.374,1.629Zm7.66-5.695,1.668,6.969,1.818-6.969h.992l1.874,6.988,1.686-6.988h1.368l-2.36,9.124h-1.368L116.7,13.05l-1.705,6.219h-1.368l-2.379-9.124h1.518Zm10.41,3.391a3.751,3.751,0,0,1,.6-2.379,3.264,3.264,0,0,1,2.716-1.125,3.073,3.073,0,0,1,2.623,1.162,3.645,3.645,0,0,1,.6,2.379v1.068c0,.356-.113.487-.487.487h-4.591v.712a2.487,2.487,0,0,0,.375,1.629,1.913,1.913,0,0,0,1.518.525,1.476,1.476,0,0,0,1.611-1.573h1.443a2.8,2.8,0,0,1-3.092,2.96,3.211,3.211,0,0,1-2.716-1.125,3.751,3.751,0,0,1-.6-2.379V13.537Zm1.462.318h3.616v-.244a2.513,2.513,0,0,0-.355-1.629,1.727,1.727,0,0,0-1.406-.562,1.771,1.771,0,0,0-1.48.543,2.456,2.456,0,0,0-.375,1.629v.264Zm8.076-3.709.057,1.123a2.928,2.928,0,0,1,2.434-1.236h.357v1.443h-.206a2.579,2.579,0,0,0-1.968.674,2.549,2.549,0,0,0-.524,1.893v5.226H131.4V10.145h1.311Zm4.767,0V9.227c0-1.63.787-2.678,2.492-2.7a6.132,6.132,0,0,1,.787.058V7.71a3.711,3.711,0,0,0-.469-.019c-1.012,0-1.348.525-1.348,1.593v.862h1.686V11.42H138.94v7.849h-1.462V11.42h-1.161V10.146Zm5.94,0v5.695a2.487,2.487,0,0,0,.375,1.629,1.871,1.871,0,0,0,1.48.525,1.822,1.822,0,0,0,1.48-.525,2.467,2.467,0,0,0,.411-1.629V10.146h1.462v5.732a3.757,3.757,0,0,1-.637,2.379,3.819,3.819,0,0,1-5.414,0,3.753,3.753,0,0,1-.618-2.379V10.146ZM152,6.755V19.269h-1.462V6.755ZM49.163,31.769c0,.975.507,1.5,1.631,1.5,1.048,0,1.554-.581,1.554-1.312,0-.786-.9-1.1-1.855-1.443-1.18-.393-2.661-.991-2.661-2.736a2.561,2.561,0,0,1,2.812-2.585,2.561,2.561,0,0,1,2.847,2.792H52.142a1.334,1.334,0,0,0-1.461-1.5c-.936,0-1.443.487-1.443,1.179,0,.844.9,1.18,1.911,1.557,1.2.449,2.605.954,2.605,2.623a2.643,2.643,0,0,1-2.961,2.7c-1.817,0-2.978-.956-2.978-2.68v-.094h1.349Zm7.4-6.463v5.527a2.531,2.531,0,0,0,.3,1.519,1.717,1.717,0,0,0,1.48.692,1.974,1.974,0,0,0,1.443-.543,2.162,2.162,0,0,0,.542-1.761V25.306h1.462v9.049c0,2.342-.918,3.691-3.3,3.691a6.117,6.117,0,0,1-.787-.057V36.678a6.239,6.239,0,0,0,.749.056c1.293,0,1.874-.711,1.874-2.21V33.4a3.109,3.109,0,0,1-2.342,1.03,2.944,2.944,0,0,1-2.1-.749,3.28,3.28,0,0,1-.787-2.473v-5.9Zm8.113,6.463c0,.975.5,1.5,1.63,1.5,1.049,0,1.555-.581,1.555-1.312,0-.786-.9-1.1-1.855-1.443-1.18-.393-2.661-.991-2.661-2.736A2.835,2.835,0,0,1,69,27.985H67.656a1.333,1.333,0,0,0-1.461-1.5c-.936,0-1.443.487-1.443,1.179,0,.844.9,1.18,1.911,1.557,1.2.449,2.6.954,2.6,2.623a2.641,2.641,0,0,1-2.959,2.7c-1.817,0-2.98-.956-2.98-2.68v-.094Zm7.944-8.729v2.266h1.986V26.58H72.622v4.666c0,1.31.356,1.929,1.7,1.929h.3v1.368h-.583c-2.135,0-2.884-1.068-2.884-3.2V26.58H69.718V25.306h1.443V23.04ZM75.9,28.7a3.757,3.757,0,0,1,.6-2.378,3.266,3.266,0,0,1,2.717-1.125,3.072,3.072,0,0,1,2.623,1.161,3.65,3.65,0,0,1,.6,2.38V29.8c0,.356-.113.487-.488.487H77.364V31a2.5,2.5,0,0,0,.375,1.632,1.912,1.912,0,0,0,1.517.523,1.477,1.477,0,0,0,1.612-1.574h1.443a2.8,2.8,0,0,1-3.092,2.961A3.216,3.216,0,0,1,76.5,33.418a3.758,3.758,0,0,1-.6-2.379V28.7Zm1.461.319h3.616v-.244a2.5,2.5,0,0,0-.356-1.63,1.726,1.726,0,0,0-1.406-.562,1.771,1.771,0,0,0-1.478.543,2.454,2.454,0,0,0-.376,1.63Zm8.02-3.71.075,1.049a2.9,2.9,0,0,1,2.36-1.161,2.762,2.762,0,0,1,2.024.749,2.44,2.44,0,0,1,.412.563,3.341,3.341,0,0,1,.974-.881,3.258,3.258,0,0,1,1.63-.431,2.775,2.775,0,0,1,2.042.749,3.28,3.28,0,0,1,.806,2.473V34.43H94.243V28.791a2.623,2.623,0,0,0-.318-1.536A1.6,1.6,0,0,0,92.5,26.58a1.9,1.9,0,0,0-1.368.562,1.864,1.864,0,0,0-.487,1.536V34.43h-1.46V28.791a2.623,2.623,0,0,0-.3-1.536,1.62,1.62,0,0,0-1.423-.675,1.841,1.841,0,0,0-1.368.562,2.219,2.219,0,0,0-.506,1.762V34.43H84.128V25.306h1.255Zm13.172,6.463c0,.975.506,1.5,1.63,1.5,1.049,0,1.555-.581,1.555-1.312,0-.786-.9-1.1-1.855-1.443-1.18-.393-2.661-.991-2.661-2.736a2.835,2.835,0,0,1,5.658.207h-1.348a1.335,1.335,0,0,0-1.462-1.5c-.936,0-1.443.487-1.443,1.179,0,.844.9,1.18,1.913,1.557,1.2.449,2.6.954,2.6,2.623a2.642,2.642,0,0,1-2.96,2.7c-1.817,0-2.979-.956-2.979-2.68v-.094Z" fill="#fff"/><path d="M0,.407V38.653H5.572C3.756,37.839,2.73,36.063,2.73,33.5V30.414c0-3.6,2.018-5.658,5.42-5.658,3.324,0,5.184,2.018,5.184,4.985V30.1H11.356v-.276A2.917,2.917,0,0,0,8.15,26.576c-2.216,0-3.442,1.345-3.442,3.759v3.244c0,2.413,1.227,3.759,3.442,3.759a2.909,2.909,0,0,0,3.206-3.244v-.277h1.978v.277a4.649,4.649,0,0,1-2.621,4.559h4.171V25.032h5.38a3.988,3.988,0,0,1,4.273,4.154,4.019,4.019,0,0,1-4.273,4.155h-3.4v5.311H27.929a4.646,4.646,0,0,1-2.841-4.52V33.5h1.978v.475c0,2.2,1.267,3.4,3.541,3.4,1.84,0,2.949-.988,2.949-2.314s-.891-1.86-2.652-2.236l-.91-.2c-2.472-.535-4.273-1.465-4.273-4.036,0-2.355,2.058-3.838,4.63-3.838,2.868,0,5.064,1.523,5.064,4.352v.633H33.437v-.475c0-1.781-1.268-2.729-3.087-2.729-1.543,0-2.651.81-2.651,2.037,0,1.267.831,1.76,2.79,2.2l.91.2c2.573.554,4.134,1.662,4.134,4.035a3.873,3.873,0,0,1-2.417,3.65h5.129V.407Z" fill="#fff"/><path d="M22.559,29.186c0-1.5-.871-2.334-2.512-2.334H16.862v4.669h3.185A2.2,2.2,0,0,0,22.559,29.186Z" fill="#fff"/></g></g></svg>