<?xml version="1.0" encoding="UTF-8"?>
<svg id="Layer_1" xmlns="http://www.w3.org/2000/svg" version="1.1" viewBox="0 0 122.6 46.2">
  <!-- Generator: Adobe Illustrator 29.7.0, SVG Export Plug-In . SVG Version: 2.1.1 Build 138)  -->
  <g id="Layer_11" data-name="Layer_1" focusable="false">
    <path d="M40.7,0H5.5C2.5,0,0,2.5,0,5.5v35.2c0,3,2.5,5.5,5.5,5.5h35.2c3,0,5.5-2.5,5.5-5.5V5.5C46.2,2.5,43.7,0,40.7,0Z" fill="#fff"/>
    <g>
      <path d="M64.4,35.9c-.4.5-.9.8-1.4,1.2-.5.3-1.1.6-1.7.8-.6.2-1.4.3-2.2.3s-1.7,0-2.6-.4c-.9-.3-1.6-.7-2.3-1.2s-1.2-1.2-1.6-2.1c-.4-.8-.6-1.9-.6-3s.2-2.1.6-3c.4-.8,1-1.5,1.6-2.1.7-.6,1.4-1,2.3-1.2.8-.3,1.7-.4,2.6-.4s1.3,0,1.9.2c.6.1,1.1.3,1.6.6.5.3.9.6,1.4,1,.4.4.9.9,1.3,1.5l-1.9,1.1c-.3-.4-.6-.7-.9-1-.3-.3-.6-.5-.9-.7-.3-.2-.7-.3-1.1-.4-.4,0-.8-.1-1.4-.1s-1.3,0-1.9.3c-.6.2-1.1.5-1.6.9s-.8.9-1.1,1.4-.4,1.3-.4,2,0,1.5.4,2.1c.3.6.6,1.1,1.1,1.4.5.4,1,.7,1.6.8s1.2.3,1.9.3,1.1,0,1.5-.2c.4,0,.8-.3,1.2-.5s.7-.5.9-.8c.3-.3.6-.7.8-1.1l1.9,1c-.4.6-.8,1.1-1.2,1.5h0l.2-.2Z" fill="#fff"/>
      <path d="M76.7,28.4c-.2-.2-.4-.4-.6-.6s-.3-.3-.4-.3-.2-.1-.2-.2c0,0,0,0-.2-.1-.2,0-.3-.1-.5-.2s-.4,0-.7,0h-1c-.4,0-.8.2-1.2.4-.4.2-.6.2-.9.4-.3.1-.6.3-1,.5v9.7h-2.1v-12.9h2.1v1.1c.2-.1.4-.2.5-.3.2-.1.4-.2.6-.3.4-.2.9-.4,1.4-.5s1-.2,1.6-.2h1.1c.4,0,.7.2,1.1.3.3.1.5.3.8.5s.6.5,1.1,1c0,0-1.5,1.7-1.5,1.7Z" fill="#fff"/>
      <path d="M91.6,33.9c-.3.8-.7,1.5-1.3,2.1-.6.6-1.3,1.1-2.2,1.5-.9.4-1.9.6-3.2.6s-2.2-.2-3.1-.5-1.6-.9-2.2-1.5-1-1.3-1.3-2.1-.5-1.7-.5-2.5.2-2,.6-2.8.9-1.5,1.5-2.1,1.4-1,2.3-1.3,1.8-.5,2.7-.5,1.9.2,2.7.5c.9.3,1.6.7,2.3,1.3.6.6,1.2,1.3,1.5,2.1.4.8.6,1.8.6,2.8s0,1.7-.4,2.5h0ZM89.6,29.6c-.2-.6-.6-1.1-1-1.5s-1-.7-1.6-.9c-.6-.2-1.3-.3-2-.3s-1.4.1-2,.3c-.6.2-1.1.5-1.6.9-.4.4-.8.9-1,1.5-.2.6-.4,1.2-.4,1.9s0,1.2.3,1.7c.2.6.5,1,.9,1.5.4.4.9.8,1.6,1,.6.2,1.4.4,2.3.4s1.6,0,2.2-.4c.6-.3,1.1-.6,1.5-1s.7-.9.9-1.5c.2-.6.3-1.1.3-1.7s0-1.4-.4-1.9h0Z" fill="#fff"/>
      <path d="M104.7,38v-8.7c0-.4,0-.7,0-1,0-.3-.2-.5-.4-.7-.2-.2-.4-.3-.7-.5-.3-.1-.8-.2-1.4-.2s-1.5.2-2.5.5c-.2,0-.4.2-.6.3-.2.1-.4.2-.7.4-.2.1-.4.3-.7.4-.2.1-.4.3-.6.4v9.1h-2.1v-12.9h2.2v1.3c.3-.2.6-.4.9-.5.3-.2.6-.3.9-.4.6-.2,1.1-.4,1.6-.5.5,0,1-.1,1.6-.1s1.4.1,2.1.3c.6.2,1.1.5,1.5,1,.4.4.7.9.9,1.4s.3,1.1.3,1.7v8.7h-2.2Z" fill="#fff"/>
      <path d="M120.4,38v-8.7c0-.4,0-.7,0-1,0-.3-.2-.5-.4-.7-.2-.2-.4-.3-.7-.5s-.8-.2-1.4-.2-1.5.2-2.5.5c-.2,0-.4.2-.6.3-.2.1-.4.2-.7.4-.2.1-.4.3-.7.4-.2.1-.4.3-.6.4v9.1h-2.1v-12.9h2.2v1.3c.3-.2.6-.4.9-.5.3-.2.6-.3.9-.4.6-.2,1.1-.4,1.6-.5.5,0,1-.1,1.6-.1s1.4.1,2.1.3c.6.2,1.1.5,1.5,1,.4.4.7.9.9,1.4s.3,1.1.3,1.7v8.7h-2.2Z" fill="#fff"/>
    </g>
    <g>
      <path d="M21.8,38.1h-2.2v-8.9c0-.4,0-.7-.1-1,0-.3-.2-.5-.4-.7-.2-.2-.4-.3-.7-.5-.3-.1-.8-.2-1.4-.2s-1.6.2-2.5.5c-.2,0-.4.2-.6.3-.2.1-.5.2-.7.4-.2.1-.5.3-.7.4s-.4.3-.6.4v9.3h-2.2v-13.2h2.2v1.3c.3-.2.6-.4,1-.5.3-.2.6-.3,1-.4.6-.2,1.1-.4,1.7-.5.5-.1,1.1-.2,1.6-.2.8,0,1.5.1,2.1.3.6.2,1.2.6,1.6,1s.7.9.9,1.4c.2.5.3,1.1.3,1.8v8.9h-.3Z"/>
      <path d="M22.1,20c-.4.5-.9.9-1.4,1.2-.5.3-1.1.6-1.8.8-.7.2-1.4.3-2.3.3s-1.8-.1-2.7-.4c-.9-.3-1.7-.7-2.4-1.3-.7-.6-1.3-1.3-1.7-2.2-.4-.9-.6-2-.6-3.2s.2-2.3.7-3.1c.4-.9,1-1.6,1.7-2.2.7-.6,1.5-1,2.4-1.3.9-.3,1.8-.4,2.7-.4s1.4,0,2,.2c.6.1,1.1.3,1.7.6.5.3,1,.6,1.4,1.1.5.4.9,1,1.4,1.6l-2,1.1c-.3-.4-.6-.8-.9-1.1s-.6-.6-1-.7c-.3-.2-.7-.3-1.1-.4s-.9-.1-1.4-.1-1.3.1-2,.3c-.6.2-1.2.5-1.7.9s-.9.9-1.2,1.5-.4,1.3-.4,2.1.1,1.6.4,2.2c.3.6.7,1.1,1.1,1.5.5.4,1,.7,1.7.9.6.2,1.3.3,2,.3s1.1,0,1.6-.2c.5-.1.9-.3,1.2-.5.4-.2.7-.5,1-.9.3-.3.6-.7.9-1.2l2,1c-.4.6-.8,1.1-1.2,1.6h-.1Z"/>
      <path d="M36.7,38.1h-2.2v-8.9c0-.4,0-.7,0-1s-.2-.5-.4-.7-.4-.3-.7-.5c-.3-.1-.8-.2-1.4-.2s-1.6.2-2.5.5c-.2,0-.4.2-.6.3-.2.1-.5.2-.7.4-.2.1-.5.3-.7.4s-.4.3-.6.4v9.3h-2.2v-13.2h2.2v1.3c.3-.2.6-.4,1-.5.3-.2.6-.3,1-.4.6-.2,1.1-.4,1.7-.5.5-.1,1.1-.2,1.6-.2.8,0,1.5.1,2.1.3.6.2,1.2.6,1.6,1,.4.4.7.9.9,1.4s.3,1.1.3,1.8v8.9h-.3Z"/>
      <path d="M35.5,12.2c-.2-.2-.4-.4-.6-.6s-.3-.3-.4-.4c0,0-.2-.2-.3-.2,0,0,0,0-.2-.1-.2,0-.3-.1-.5-.2h-1.7c-.4,0-.7.2-1.2.4-.4.2-.6.2-1,.4-.3.1-.7.3-1,.5v10h-2.2v-13.2h2.2v1.1l.6-.3.6-.3c.5-.2.9-.4,1.5-.5.5-.1,1.1-.2,1.6-.2h1.1c.4,0,.7.2,1.1.3.3.1.5.3.8.5s.7.5,1.2,1l-1.5,1.7h0Z"/>
    </g>
  </g>
</svg>