<?xml version="1.0" encoding="UTF-8"?>
<svg id="Layer_1" xmlns="http://www.w3.org/2000/svg" version="1.1" viewBox="0 0 680 180">
  <!-- Generator: Adobe Illustrator 29.7.0, SVG Export Plug-In . SVG Version: 2.1.1 Build 138)  -->
  <g id="Layer_2">
    <g id="Layer_1-2">
      <g id="Word_trademark">
        <path id="Path_1101" d="M249,33.8v37.9h.2c.4-1.2,1.1-2.2,1.9-3.2,1-1.1,2.1-2,3.3-2.8,1.4-.9,2.9-1.5,4.5-2,1.8-.5,3.7-.8,5.6-.8,3.6-.1,7.1.6,10.4,2,2.5,1.2,4.6,3.1,6.1,5.4,1.5,2.5,2.6,5.3,3,8.2.5,3.4.8,6.8.8,10.3v30.2h-16.8v-26.8c0-1.6,0-3.2-.2-4.9,0-1.6-.4-3.2-1-4.7-1.1-3.2-4.3-5.2-7.6-4.8-1.8,0-3.7.3-5.3,1.1-1.3.7-2.4,1.8-3.1,3.2-.7,1.4-1.2,2.9-1.4,4.5-.2,1.7-.4,3.4-.3,5.2v27.3h-17V33.8h17Z" fill="#fff"/>
        <path id="Path_1102" d="M349,109.6c-2.7,3.5-6.2,6.2-10.2,8-4,1.8-8.4,2.8-12.9,2.8-4.1,0-8.1-.6-11.9-2-3.6-1.3-6.9-3.2-9.7-5.8-2.8-2.5-5-5.6-6.5-9.1-3.2-7.6-3.2-16.1,0-23.7,1.5-3.4,3.7-6.5,6.5-9.1,2.8-2.6,6.1-4.5,9.7-5.8,3.8-1.4,7.9-2,11.9-2,3.6,0,7.2.6,10.6,2,3.1,1.3,5.9,3.3,8.1,5.8,2.3,2.7,4.1,5.8,5.2,9.1,1.2,3.8,1.9,7.8,1.8,11.8v5.2h-39.2c.6,3,2.1,5.7,4.4,7.7,2.3,1.9,5.3,3,8.4,2.9,2.5,0,4.9-.6,7-1.9,1.9-1.3,3.6-2.9,5-4.8l11.9,8.7ZM334.7,85.5c.1-2.7-.9-5.4-2.8-7.3-2-2-4.7-3.2-7.6-3.1-3.2,0-6.3,1.1-8.6,3.2-1,.9-1.8,2-2.4,3.3-.6,1.2-.9,2.5-1,3.9h22.4Z" fill="#fff"/>
        <path id="Path_1103" d="M393.4,128c-1.2,2.9-2.2,5.5-3.3,7.8-1,2.1-2.3,4.1-4,5.7-1.8,1.6-3.9,2.8-6.1,3.5-3.2.9-6.5,1.3-9.8,1.2-4.3,0-8.6-.6-12.6-2l2.2-13.9c2.5,1.1,5.2,1.7,7.9,1.7,1.6,0,3.1-.2,4.6-.6,1.1-.4,2.1-1,3-1.8.8-.8,1.5-1.8,2-2.9.5-1.1,1.1-2.4,1.7-3.9l1.2-3.2-24-55.3h18.3l14.1,36.2h.2l12.1-36.2h17.4l-24.8,63.6Z" fill="#fff"/>
        <path id="Path_1104" d="M427.8,33.8h16.9v85.3h-16.9V33.8Z" fill="#fff"/>
        <path id="Path_1105" d="M454.8,91.7c0-4.1.8-8.1,2.4-11.8,1.5-3.4,3.7-6.5,6.5-9.1,2.8-2.6,6.1-4.5,9.7-5.8,7.7-2.7,16.1-2.7,23.8,0,3.6,1.3,6.9,3.2,9.7,5.8,2.8,2.5,5,5.6,6.5,9.1,3.2,7.6,3.2,16.1,0,23.7-1.5,3.4-3.7,6.5-6.5,9.1-2.8,2.6-6.1,4.5-9.7,5.8-7.7,2.7-16.1,2.7-23.8,0-3.6-1.3-6.9-3.2-9.7-5.8-2.8-2.5-5-5.6-6.5-9.1-1.6-3.7-2.4-7.8-2.3-11.8ZM471.7,91.7c-.2,3.7,1.1,7.3,3.5,10,2.4,2.6,5.7,3.8,10,3.8s7.6-1.3,10-3.8c4.7-5.9,4.7-14.2,0-20.1-2.4-2.5-5.7-3.8-10-3.8-4.3,0-7.6,1.3-10,3.8-2.5,2.8-3.7,6.4-3.6,10.1h0Z" fill="#fff"/>
        <path id="Path_1106" d="M582.9,114.5c0,10.4-2.6,18.2-7.9,23.6-5.2,5.4-13.2,8.1-23.8,8.1-4.9,0-9.7-.5-14.4-1.6-4.8-1.1-9.3-3.3-13.1-6.4l9.4-14c2.5,2.1,5.3,3.8,8.3,5.2,3,1.3,6.3,2,9.5,1.9,5.2,0,9-1.3,11.4-3.8,2.5-2.6,3.8-6,3.7-9.6v-5.3h-.2c-1.8,2.5-4.4,4.5-7.3,5.6-2.6,1-5.4,1.6-8.2,1.6-3.8,0-7.5-.7-11-2.1-3.2-1.3-6.1-3.3-8.5-5.9-2.4-2.6-4.3-5.7-5.5-9-2.5-7.1-2.6-14.9-.2-22,1.1-3.3,2.8-6.4,5-9.2,2.2-2.6,4.8-4.8,7.9-6.3,3.2-1.6,6.8-2.4,10.4-2.4,2.2,0,4.4.3,6.6.8,1.9.5,3.6,1.1,5.4,2,1.5.8,2.8,1.7,4.1,2.8,1,.9,1.9,1.9,2.7,3h.2v-7.3h15.6v50.2ZM540.2,91.3c0,3.5,1.4,6.9,3.9,9.4,1.2,1.2,2.7,2.3,4.3,3,3.4,1.5,7.3,1.5,10.7,0,1.6-.7,3.1-1.7,4.3-3,5.2-5.2,5.2-13.6,0-18.8,0,0,0,0,0,0h0c-1.3-1.3-2.7-2.3-4.3-3-3.4-1.5-7.3-1.5-10.7,0-1.6.7-3,1.8-4.3,3-2.5,2.5-3.9,5.9-3.9,9.4Z" fill="#fff"/>
        <path id="Path_1107" d="M595.3,47.1c0-5.4,4.4-9.8,9.8-9.8,5.4,0,9.8,4.4,9.8,9.8s-4.4,9.8-9.8,9.8c-2.6,0-5.1-1-6.9-2.9-1.9-1.8-2.9-4.3-2.9-6.9ZM596.7,64.3h16.9v54.8h-16.9v-54.8Z" fill="#fff"/>
        <path id="Path_1108" d="M627.2,64.3h16.2v7.4h.2c.6-1.1,1.4-2.2,2.2-3.2,1-1.1,2.2-2,3.5-2.8,1.5-.8,3-1.5,4.6-2,1.8-.5,3.7-.8,5.6-.8,3.6-.1,7.1.6,10.4,2,2.5,1.2,4.7,3.1,6.2,5.5,1.5,2.5,2.6,5.3,3,8.2.5,3.4.8,6.8.8,10.2v30.2h-16.9v-26.9c0-1.6,0-3.2-.2-4.9,0-1.6-.4-3.2-1-4.7-1.1-3.2-4.3-5.2-7.6-4.8-1.8,0-3.7.3-5.3,1.1-1.3.8-2.4,1.9-3.1,3.2-.7,1.4-1.2,2.9-1.4,4.5-.2,1.7-.3,3.4-.3,5.2v27.3h-16.9v-54.8Z" fill="#fff"/>
      </g>
      <path d="M90,180c18.5,0,36.5-5.7,51.6-16.2l-35-41.8c-9.3,4.8-20.3,5.4-30,1.4l-35.4,42.2c14.5,9.4,31.5,14.4,48.8,14.4Z" fill="#eaeaea"/>
      <path d="M155.9,28.8l-35.4,42.2c10.5,16.8,5.4,39-11.4,49.5-.9.5-1.7,1-2.6,1.5l35,41.8c40.7-28.5,50.7-84.6,22.2-125.3-2.4-3.4-5-6.6-7.8-9.7h0Z" fill="#ccc"/>
      <path d="M126,90c0-6.7-1.9-13.3-5.5-19l-43.9,52.4c18.4,7.4,39.4-1.5,46.8-20,1.7-4.3,2.6-8.8,2.6-13.4Z" fill="#a5a5a5"/>
      <path d="M41.1,165.6l35.4-42.2c-18.4-7.4-27.4-28.4-19.9-46.8,7.4-18.4,28.4-27.4,46.8-19.9,7.1,2.8,13,7.9,17.1,14.3l35.4-42.2h0C122.1-7.7,65.2-9.8,28.7,24-7.7,57.8-9.8,114.7,24,151.2c5.1,5.5,10.9,10.3,17.2,14.4h0Z" fill="#fff"/>
    </g>
  </g>
</svg>