<?xml version="1.0" encoding="utf-8"?>
<!-- Generator: Adobe Illustrator 28.1.0, SVG Export Plug-In . SVG Version: 6.00 Build 0)  -->
<svg version="1.1" id="svg2928" xmlns:svg="http://www.w3.org/2000/svg"
	 xmlns="http://www.w3.org/2000/svg" xmlns:xlink="http://www.w3.org/1999/xlink" x="0px" y="0px" viewBox="0 0 290 105"
	 style="enable-background:new 0 0 290 105;" xml:space="preserve">
<style type="text/css">
	.st0{clip-path:url(#SVGID_00000129884892093195813550000013026829240331462844_);}
	.st1{fill:#FFFFFF;}
	.st2{clip-path:url(#SVGID_00000102537650494167180710000006976532602820462727_);}
	.st3{clip-path:url(#SVGID_00000002365838307458833090000016659607101122523812_);}
	.st4{fill-rule:evenodd;clip-rule:evenodd;fill:#FFFFFF;}
	.st5{clip-path:url(#SVGID_00000132076079868340735050000016128680339475200436_);}
	.st6{fill:none;stroke:#FFFFFF;stroke-width:1.6862;stroke-miterlimit:12.5;}
</style>
<g id="layer1" transform="translate(-82.011682,-113.56015)">
	<g id="g2879" transform="matrix(1.25,0,0,-1.25,-333.54285,1098.5408)">
		<g id="g13">
			<g>
				<defs>
					<rect id="SVGID_1_" x="307.6" y="695.8" width="281.7" height="100.5"/>
				</defs>
				<clipPath id="SVGID_00000026848888964881490690000014101722248662791852_">
					<use xlink:href="#SVGID_1_"  style="overflow:visible;"/>
				</clipPath>
				<g id="g15" style="clip-path:url(#SVGID_00000026848888964881490690000014101722248662791852_);">
					<g id="g21">
						<path id="path23" class="st1" d="M337.8,774c0-1.2,0.2-3.4,2.5-3.4c2.5,0,2.5,2.2,2.5,3.6v11.6h2.2v-11.5c0-1.6,0-5.7-4.8-5.7
							c-1.4,0-3.9,0.3-4.5,3.8c-0.1,0.6-0.1,1-0.1,1.3L337.8,774"/>
					</g>
				</g>
			</g>
		</g>
		<path id="path27" class="st1" d="M362.7,785.9v-9.8c0-2.2,0-7.4-6.6-7.4c-6.4,0-6.7,4.4-6.7,7.4v9.8h2.2v-9.8c0-2.1,0-5.4,4.3-5.4
			c4.2,0,4.6,2.4,4.6,5.4v9.8H362.7"/>
		<path id="path29" class="st1" d="M367.2,774.6c0-0.4,0.1-1.1,0.4-1.7c0.9-1.8,3.3-2.2,4.5-2.2c2.3,0,4.2,1,4.2,2.9
			c0,2-1.7,2.4-5.1,3.2c-2.2,0.5-5.5,1.3-5.5,4.7c0,2.6,2.2,4.7,5.9,4.7c3.6,0,6.2-1.8,6.4-5.1l-2.2-0.2c-0.1,1.2-0.6,3.2-4.1,3.2
			c-1.5,0-3.9-0.4-3.9-2.5c0-1.5,0.9-2,4-2.7c3.1-0.7,6.7-1.5,6.7-5.2c0-2.8-2.4-5.1-6.3-5.1c-4.1,0-5.9,1.6-6.8,3.6
			c-0.4,0.9-0.4,1.6-0.4,2.1L367.2,774.6"/>
		<path id="path31" class="st1" d="M385.1,783.9h-5.6v2H393v-2h-5.6v-14.9h-2.2V783.9"/>
		<path id="path33" class="st1" d="M407.9,785.9v-9.8c0-2.2,0-7.4-6.6-7.4c-6.4,0-6.7,4.4-6.7,7.4v9.8h2.2v-9.8c0-2.1,0-5.4,4.3-5.4
			c4.2,0,4.6,2.4,4.6,5.4v9.8H407.9"/>
		<path id="path35" class="st1" d="M412.2,774.6c0-0.4,0.1-1.1,0.5-1.7c0.9-1.8,3.3-2.2,4.5-2.2c2.3,0,4.2,1,4.2,2.9
			c0,2-1.7,2.4-5.1,3.2c-2.2,0.5-5.5,1.3-5.5,4.7c0,2.6,2.2,4.7,5.9,4.7c3.6,0,6.2-1.8,6.4-5.1l-2.2-0.2c-0.1,1.2-0.6,3.2-4.1,3.2
			c-1.5,0-3.9-0.4-3.9-2.5c0-1.5,0.9-2,4-2.7c3.1-0.7,6.6-1.5,6.6-5.2c0-2.8-2.4-5.1-6.3-5.1c-4.1,0-5.9,1.6-6.8,3.6
			c-0.4,0.9-0.4,1.6-0.4,2.1L412.2,774.6"/>
		<path id="path37" class="st1" d="M426.9,774h6.4v2.1h-6.4V774z"/>
		<path id="path39" class="st1" d="M437.1,785.9h2.2V771h8.4v-2h-10.6V785.9"/>
		<path id="path41" class="st1" d="M449.9,768.9h2.2v16.9h-2.2V768.9z"/>
		<path id="path43" class="st1" d="M456.7,785.9h12.3v-2h-10v-5.2h9.4v-2h-9.4V771h10.4v-2h-12.7V785.9"/>
		<path id="path45" class="st1" d="M474.6,776.8h3.9c1.4,0,4.3,0,4.3-2.9c0-2.9-2.8-2.9-4-2.9h-4.2V776.8z M472.3,768.9h6.5
			c1,0,2.2,0,3.6,0.6c1.6,0.6,2.7,2.4,2.7,4.3c0,1.3-0.6,3.3-3.2,4.1c2.2,1.1,2.3,3,2.3,3.6c0,1.3-0.6,2.5-1.7,3.3c-1.3,1-2.9,1-4,1
			h-6.4V768.9z M474.6,783.9h3.4c1.9,0,4.1,0,4.1-2.6c0-2.5-2.4-2.5-3.9-2.5h-3.7V783.9"/>
		<path id="path47" class="st1" d="M488.3,768.9h2.2v16.9h-2.2V768.9z"/>
		<path id="path49" class="st1" d="M501.9,777.6h7.2v-6.3c-0.9-0.7-3.3-2.7-7-2.7c-5.1,0-8.7,3.3-8.7,8.7c0,3.3,1.6,8.8,8.5,8.8
			c5.7,0,6.6-3.8,6.9-5l-2-0.6c-0.3,1.1-1,3.7-4.9,3.7c-5.7,0-6.2-5.1-6.2-6.8c0-1.8,0.4-3.6,1.5-4.9c1.2-1.3,3-1.9,4.7-1.9
			c2.6,0,4.5,1.4,4.9,1.8v3.1h-5V777.6"/>
		<path id="path51" class="st1" d="M511.3,774h6.4v2.1h-6.4V774z"/>
		<path id="path53" class="st1" d="M422.8,757.5v-9.8c0-2.2,0-7.4-6.6-7.4c-6.4,0-6.7,4.4-6.7,7.4v9.8h2.2v-9.8c0-2.1,0-5.4,4.3-5.4
			c4.2,0,4.6,2.4,4.6,5.4v9.8H422.8"/>
		<path id="path55" class="st1" d="M426.8,757.5h2.3l8.9-13.3h0v13.3h2.1v-16.9h-2.3l-8.9,13.3h0v-13.3h-2.1V757.5"/>
		<path id="path57" class="st1" d="M445,740.5h2.2v16.9H445V740.5z"/>
		<path id="path59" class="st1" d="M449.6,757.5h2.4l4.4-12.3l0.1-0.3c0.3-0.9,0.4-1.1,0.8-2.5h0c0.2,0.9,0.6,1.9,0.9,2.8l4.6,12.3
			h2.3l-6.6-16.9h-2.3L449.6,757.5"/>
		<path id="path61" class="st1" d="M467.1,757.5h12.3v-2h-10v-5.2h9.4v-2h-9.4v-5.7h10.4v-2h-12.7V757.5"/>
		<path id="path63" class="st1" d="M485.1,755.6h5.3c0.9,0,1.6-0.1,2.3-0.5c0.7-0.4,1.3-1.2,1.3-2.3c0-1-0.6-2-1.5-2.4
			c-0.9-0.4-1.7-0.4-2.7-0.4h-4.8V755.6z M482.9,740.5h2.2v7.5h2.6c1.9,0,2.6-0.2,5.1-4l2.2-3.5h2.8l-3,4.6
			c-1.3,2.1-2.3,2.7-3.2,3.1v0c2.9,0.4,4.8,1.8,4.8,4.6c0,1.8-0.9,3.5-2.7,4.2c-1.1,0.4-2.2,0.5-3.4,0.5h-7.5V740.5"/>
		<path id="path65" class="st1" d="M500.5,746.2c0-0.4,0.1-1.1,0.4-1.7c0.9-1.8,3.3-2.2,4.5-2.2c2.3,0,4.2,1,4.2,2.9
			c0,2-1.7,2.4-5.1,3.2c-2.2,0.5-5.5,1.3-5.5,4.7c0,2.6,2.2,4.7,5.9,4.7c3.6,0,6.2-1.8,6.4-5.1l-2.2-0.2c-0.1,1.2-0.6,3.2-4.1,3.2
			c-1.5,0-3.9-0.4-3.9-2.5c0-1.5,0.9-2,4-2.7c3.1-0.7,6.7-1.5,6.7-5.2c0-2.8-2.4-5.1-6.3-5.1c-4.1,0-5.9,1.6-6.8,3.6
			c-0.4,0.9-0.4,1.6-0.4,2.1L500.5,746.2"/>
		<path id="path67" class="st1" d="M515.3,740.5h2.2v16.9h-2.2V740.5z"/>
		<path id="path69" class="st1" d="M525.2,755.5h-5.6v2h13.4v-2h-5.6v-14.9h-2.2V755.5"/>
		<g id="g71">
			<g>
				<defs>
					<rect id="SVGID_00000066495491173058442850000016821987526103452850_" x="307.6" y="695.8" width="281.7" height="100.5"/>
				</defs>
				<clipPath id="SVGID_00000069386292128979603110000009746166556171434890_">
					<use xlink:href="#SVGID_00000066495491173058442850000016821987526103452850_"  style="overflow:visible;"/>
				</clipPath>
				<g id="g73" style="clip-path:url(#SVGID_00000069386292128979603110000009746166556171434890_);">
					<path id="path79" class="st1" d="M539.4,752.5c0.4,1.1,0.7,2.1,0.9,3.2h0c0.4-1.4,0.7-2.4,1.2-3.5l1.8-4.7h-5.8L539.4,752.5z
						 M532.6,740.5h2.4l1.9,5.2h7.1l2-5.2h2.5l-6.9,16.9h-2.4L532.6,740.5"/>
					<path id="path81" class="st1" d="M553.3,755.5h-5.6v2h13.4v-2h-5.6v-14.9h-2.2V755.5"/>
				</g>
			</g>
		</g>
		<path id="path83" class="st1" d="M416.9,723.9h7.2v-6.3c-0.9-0.7-3.3-2.6-7-2.6c-5.1,0-8.7,3.3-8.7,8.7c0,3.3,1.6,8.8,8.5,8.8
			c5.7,0,6.6-3.8,6.9-5l-2-0.6c-0.3,1.1-1,3.7-4.9,3.7c-5.7,0-6.2-5.1-6.2-6.8c0-1.8,0.4-3.6,1.5-4.9c1.2-1.3,3-1.9,4.7-1.9
			c2.6,0,4.5,1.4,4.9,1.8v3.1h-5V723.9"/>
		<path id="path85" class="st1" d="M427.8,715.3h2.2v16.9h-2.2V715.3z"/>
		<path id="path87" class="st1" d="M434.6,732.2h12.3v-2h-10V725h9.4v-2h-9.4v-5.7h10.4v-2h-12.7V732.2"/>
		<path id="path89" class="st1" d="M450.9,720.9c0-0.4,0.1-1.1,0.5-1.7c0.9-1.8,3.3-2.2,4.5-2.2c2.3,0,4.2,1,4.2,2.9
			c0,2-1.7,2.4-5.1,3.2c-2.2,0.5-5.5,1.3-5.5,4.7c0,2.6,2.2,4.7,5.9,4.7c3.6,0,6.2-1.8,6.4-5.1l-2.2-0.2c-0.1,1.2-0.6,3.2-4.1,3.2
			c-1.5,0-3.9-0.4-3.9-2.5c0-1.5,0.9-2,4-2.7c3.1-0.7,6.7-1.5,6.7-5.2c0-2.8-2.4-5.1-6.3-5.1c-4.1,0-5.9,1.6-6.8,3.6
			c-0.4,0.9-0.4,1.6-0.4,2.1L450.9,720.9"/>
		<path id="path91" class="st1" d="M466.4,720.9c0-0.4,0.1-1.1,0.4-1.7c0.9-1.8,3.3-2.2,4.5-2.2c2.3,0,4.2,1,4.2,2.9
			c0,2-1.7,2.4-5.1,3.2c-2.2,0.5-5.5,1.3-5.5,4.7c0,2.6,2.2,4.7,5.9,4.7c3.6,0,6.2-1.8,6.4-5.1l-2.2-0.2c-0.1,1.2-0.6,3.2-4.1,3.2
			c-1.5,0-3.9-0.4-3.9-2.5c0-1.5,0.9-2,4-2.7c3.1-0.7,6.7-1.5,6.7-5.2c0-2.8-2.4-5.1-6.3-5.1c-4.1,0-5.9,1.6-6.8,3.6
			c-0.4,0.9-0.4,1.6-0.4,2.1L466.4,720.9"/>
		<path id="path93" class="st1" d="M480,732.2h12.3v-2h-10V725h9.4v-2h-9.4v-5.7h10.4v-2H480V732.2"/>
		<path id="path95" class="st1" d="M495.8,732.2h2.3l8.9-13.3h0v13.3h2.1v-16.9h-2.3l-8.9,13.3h0v-13.3h-2.1V732.2"/>
		<path id="path97" class="st1" d="M377.8,725.2c0.1,0.9,0.2,2.4,0.3,3.2c0.4,5.6,0.4,11.5,0.2,14.3l-0.1,1.5l-1.5,0
			c-4.9,0-9.6-0.6-12.2-1c0.1,1.1,0.2,2.5,0.2,4.2s0,2.9-0.1,3.8c1.9-0.4,5-0.9,7.9-1.1c4.7-0.4,8.5-0.4,8.9-0.4
			c0.4,0,4.2-0.1,8.9,0.4c3,0.3,6,0.8,7.9,1.1c0-0.9-0.1-2.2-0.1-3.8s0.1-3.1,0.2-4.2c-2.6,0.4-7.3,1.1-12.2,1l-1.5,0l-0.1-1.5
			c-0.2-2.8-0.2-8.8,0.2-14.3c0.1-0.8,0.2-2.3,0.3-3.2c0.3-3.2,0.9-6.4,1.3-8.4c-1.1,0.1-2,0.2-2.8,0.2c-1.1,0-1.8,0-2,0
			c-0.2,0-1,0-2,0c-0.8,0-1.8-0.1-2.8-0.2C376.9,718.8,377.5,722,377.8,725.2"/>
		<path id="path99" class="st1" d="M535.6,755.6h1.9v1.9h-1.9V755.6z"/>
		<g id="g101">
			<g>
				<defs>
					<rect id="SVGID_00000011753244869945488170000004508480305026799501_" x="307.6" y="695.8" width="281.7" height="100.5"/>
				</defs>
				<clipPath id="SVGID_00000042734692916494767830000007066016128491764102_">
					<use xlink:href="#SVGID_00000011753244869945488170000004508480305026799501_"  style="overflow:visible;"/>
				</clipPath>
				<g id="g103" style="clip-path:url(#SVGID_00000042734692916494767830000007066016128491764102_);">
					<path id="path109" class="st1" d="M543,755.6h1.9v1.9H543V755.6z"/>
					<path id="path111" class="st4" d="M381.3,705.8c0,0-10,3.2-16.5,15.1c-3.4,6.3-5.7,14.3-5.7,22.4v14.2h44.3v-14.2
						c0-8.1-2.3-16.1-5.7-22.4C391.3,709,381.3,705.8,381.3,705.8z M380.3,707.8c-1,0.5-2.4,1.2-3.9,2.3c-3.2,2.2-7.1,5.8-10.2,11.5
						c-3.3,6.1-5.5,13.9-5.5,21.7V756H402v-12.7c0-7.8-2.2-15.6-5.5-21.7c-3.1-5.7-7-9.3-10.2-11.5c-1.6-1.1-2.9-1.8-3.9-2.3
						c-0.4-0.2-0.8-0.3-1-0.5C381,707.5,380.7,707.6,380.3,707.8"/>
				</g>
			</g>
		</g>
		<path id="path113" class="st4" d="M381.3,715.4c0,0-0.8,0-1.9,0c-1.3-0.1-3.1-0.2-5-0.4c0,0,1.3,5.2,1.8,10.4
			c0.1,0.9,0.2,2.4,0.3,3.2c0.4,5.5,0.4,11.3,0.2,14.1c-7.3,0.1-14-1.4-14-1.4s0.4,2.7,0.4,6.1c0,4.1-0.2,5.8-0.2,5.8s5-1.1,9.8-1.5
			c4.8-0.5,8.7-0.4,8.7-0.4s3.9-0.1,8.7,0.4c4.8,0.5,9.9,1.5,9.9,1.5s-0.2-1.7-0.2-5.8c0-3.5,0.4-6.1,0.4-6.1s-6.8,1.5-14,1.4
			c-0.2-2.8-0.2-8.6,0.2-14.1c0.1-0.8,0.2-2.3,0.3-3.2c0.5-5.2,1.8-10.4,1.8-10.4c-1.9,0.2-3.7,0.4-5,0.4
			C382.1,715.4,381.3,715.4,381.3,715.4z M379.3,716c-1.1,0-2.6-0.2-4.1-0.3c0.4,1.7,1.2,5.7,1.6,9.6c0.1,0.9,0.2,2.4,0.3,3.2
			c0.4,5.5,0.4,11.4,0.2,14.2l0,0.6l-0.6,0c-5.8,0-11.3-0.9-13.3-1.3c0.1,1.1,0.3,3,0.3,5.4c0,2.5-0.1,4.1-0.2,5
			c1.6-0.3,5.4-1,9.1-1.4c4.7-0.4,8.5-0.4,8.8-0.4c0.3,0,4.1-0.1,8.8,0.4c3.7,0.3,7.5,1.1,9.1,1.4c-0.1-0.9-0.2-2.5-0.2-5
			c0-2.3,0.2-4.3,0.3-5.4c-2,0.4-7.5,1.3-13.3,1.3l-0.6,0l0-0.6c-0.2-2.8-0.2-8.7,0.2-14.2c0.1-0.8,0.2-2.3,0.3-3.2
			c0.4-4,1.2-7.9,1.6-9.6c-1.6,0.2-3,0.3-4.1,0.3c-1.1,0-1.8,0-2,0C381.1,716,380.4,716,379.3,716"/>
		<g id="g115">
			<g>
				<defs>
					<rect id="SVGID_00000148646084125672349670000010842832877164632237_" x="307.6" y="695.8" width="281.7" height="100.5"/>
				</defs>
				<clipPath id="SVGID_00000129178260181282843420000011825031464064523706_">
					<use xlink:href="#SVGID_00000148646084125672349670000010842832877164632237_"  style="overflow:visible;"/>
				</clipPath>
				<g id="g117" style="clip-path:url(#SVGID_00000129178260181282843420000011825031464064523706_);">
					<path id="path123" class="st6" d="M336.6,763.4h224.3"/>
				</g>
			</g>
		</g>
	</g>
</g>
</svg>
