<?xml version="1.0" encoding="utf-8"?>
<!-- Generator: Adobe Illustrator 28.1.0, SVG Export Plug-In . SVG Version: 6.00 Build 0)  -->
<svg version="1.1" id="Ebene_2_00000140714211429520280000000007500344234124849338_"
	 xmlns="http://www.w3.org/2000/svg" xmlns:xlink="http://www.w3.org/1999/xlink" x="0px" y="0px" viewBox="0 0 354.7 88.2"
	 style="enable-background:new 0 0 354.7 88.2;" xml:space="preserve">
<style type="text/css">
	.st0{fill:#FFFFFF;}
</style>
<g id="Ebene_1-2">
	<g>
		<g>
			<path class="st0" d="M48.6,19.4c-1.3-0.9-4.8-3.8-5.9-9.2C42,6.1,42.9,0.4,45.1,0c2.2-0.5,5.7,4.2,6.6,8.6
				C52.6,14.3,49.2,18.7,48.6,19.4z"/>
			<path class="st0" d="M51.7,22.7c1.8,1.1,7.3,4,14.3,2.8c5.7-1.1,12.1-5.1,11.7-8.1s-7.9-5.1-13.9-3.7
				C56.1,15.1,52.4,21.5,51.7,22.7L51.7,22.7z"/>
			<path class="st0" d="M45,66.1c8-11,9-24.5,3.1-33.3c1.7-2.7,0.9-6.4-1.8-8.4s-6.4-1.5-8.6,0.9c-10.1-2.9-22.7,2-30.8,13
				c-8,11-9,24.5-3.1,33.3C2.1,74.4,2.9,78,5.6,80s6.4,1.5,8.6-0.9C24.3,82,36.9,77.1,45,66.1z"/>
		</g>
		<g>
			<path class="st0" d="M97.3,31.4V4.7h5.7v21.5h12.1v5.1L97.3,31.4L97.3,31.4z"/>
			<path class="st0" d="M127.4,31.8c-2.1,0-3.8-0.4-5.4-1.3s-2.9-2.4-4.2-4.6l4.2-2.7c0.6,0.9,1.2,1.6,1.8,2.2s1.2,1,1.9,1.2
				c0.7,0.2,1.3,0.4,2.1,0.4c0.8,0,1.5-0.2,2.1-0.5c0.7-0.4,1.2-0.9,1.6-1.5c0.4-0.6,0.6-1.4,0.6-2.2s-0.2-1.6-0.5-2.2
				s-0.8-1-1.4-1.3s-1.4-0.5-2.2-0.5c-0.4,0-0.8,0-1.3,0.1s-0.9,0.2-1.4,0.4c-0.5,0.2-1,0.4-1.6,0.6l-1.3-3.5l7-7.7l1.4,1l-11.2-0.1
				v-5h16l1,2.1l-8.8,9.5l-1.3-1.6c0.2-0.1,0.5-0.2,1-0.3s0.9-0.1,1.3-0.1c1.2,0,2.3,0.2,3.3,0.6c1,0.4,1.9,1,2.7,1.8
				s1.4,1.6,1.9,2.7c0.4,1,0.7,2.1,0.7,3.3c0,1.8-0.4,3.3-1.3,4.7c-0.9,1.4-2.1,2.5-3.5,3.3S129.3,31.8,127.4,31.8L127.4,31.8z"/>
			<path class="st0" d="M141.3,31.4V11.2h5.2l0.1,3.9l-0.8,0.1c0.3-0.7,0.6-1.3,1.1-1.8s1-1,1.6-1.4s1.3-0.7,2-0.9s1.4-0.3,2.1-0.3
				c1,0,2,0.2,2.8,0.5s1.6,0.8,2.1,1.5s1,1.6,1.4,2.8l-0.8-0.1l0.3-0.6c0.3-0.6,0.8-1.2,1.3-1.7s1.1-0.9,1.7-1.3s1.3-0.6,2-0.9
				c0.7-0.2,1.4-0.3,2-0.3c1.6,0,2.9,0.3,3.9,0.9s1.8,1.6,2.3,2.8s0.8,2.8,0.8,4.6v12.2H167V19.5c0-0.9-0.1-1.7-0.4-2.2
				c-0.2-0.6-0.6-1-1.1-1.3c-0.5-0.3-1.1-0.4-1.9-0.4c-0.6,0-1.1,0.1-1.6,0.3s-0.9,0.5-1.3,0.8c-0.4,0.3-0.6,0.7-0.9,1.2
				c-0.2,0.5-0.3,1-0.3,1.5v12h-5.4V19.5c0-0.8-0.1-1.6-0.4-2.1c-0.3-0.6-0.6-1-1.1-1.4c-0.5-0.3-1.1-0.5-1.8-0.5
				c-0.6,0-1.1,0.1-1.6,0.3c-0.5,0.2-0.9,0.5-1.3,0.8s-0.6,0.7-0.9,1.2s-0.3,1-0.3,1.5v12.1L141.3,31.4L141.3,31.4z"/>
			<path class="st0" d="M186.9,31.8c-2.1,0-3.9-0.5-5.5-1.4s-2.9-2.1-3.8-3.7c-0.9-1.6-1.4-3.4-1.4-5.4s0.5-3.8,1.4-5.4
				s2.2-2.8,3.8-3.7s3.4-1.4,5.5-1.4s3.9,0.5,5.5,1.4s2.9,2.2,3.8,3.7c0.9,1.6,1.4,3.4,1.4,5.4s-0.5,3.8-1.4,5.4s-2.2,2.8-3.8,3.7
				S188.9,31.8,186.9,31.8z M186.9,27.1c1,0,1.9-0.2,2.7-0.7s1.4-1.2,1.9-2.1c0.4-0.9,0.7-1.9,0.7-3s-0.2-2.1-0.7-3
				c-0.4-0.9-1.1-1.6-1.9-2.1c-0.8-0.5-1.7-0.7-2.7-0.7s-1.9,0.2-2.7,0.8c-0.8,0.5-1.4,1.2-1.9,2.1s-0.7,1.9-0.6,3
				c0,1.1,0.2,2.1,0.6,3c0.5,0.9,1.1,1.6,1.9,2.1S185.9,27.1,186.9,27.1z"/>
			<path class="st0" d="M201.6,31.4V11.2h5.2l0.1,4.1l-1.1,0.5c0.3-0.9,0.8-1.8,1.5-2.5s1.6-1.4,2.6-1.8c1-0.5,2.1-0.7,3.2-0.7
				c1.5,0,2.8,0.3,3.8,0.9c1,0.6,1.8,1.5,2.3,2.8s0.8,2.8,0.8,4.6v12.3h-5.4V19.5c0-0.9-0.1-1.7-0.4-2.3s-0.6-1.1-1.2-1.4
				c-0.5-0.3-1.2-0.4-1.9-0.4c-0.6,0-1.2,0.1-1.7,0.3s-1,0.5-1.3,0.8c-0.4,0.4-0.7,0.8-0.9,1.2s-0.3,1-0.3,1.5v12.1L201.6,31.4
				L201.6,31.4z"/>
			<path class="st0" d="M223.5,16.1v-4.8h13.3v4.8H223.5z M227.3,31.4V6.1h5.4v25.3H227.3L227.3,31.4z"/>
			<path class="st0" d="M240.3,31.4V11.2h5.2l0.2,6.5l-0.9-1.3c0.3-1,0.8-2,1.5-2.8s1.5-1.5,2.4-2s1.9-0.7,2.9-0.7
				c0.4,0,0.9,0,1.3,0.1c0.4,0.1,0.8,0.2,1,0.3l-1.4,5.9c-0.3-0.1-0.7-0.3-1.1-0.4s-0.9-0.2-1.3-0.2c-0.6,0-1.2,0.1-1.7,0.3
				s-1,0.5-1.4,0.9s-0.7,0.9-0.9,1.4s-0.3,1.1-0.3,1.8v10.4H240.3L240.3,31.4z"/>
			<path class="st0" d="M265.7,31.8c-2.2,0-4.1-0.4-5.7-1.3s-2.9-2.1-3.8-3.7c-0.9-1.5-1.4-3.3-1.4-5.3c0-1.5,0.2-3,0.8-4.3
				c0.5-1.3,1.2-2.4,2.1-3.4s2-1.7,3.3-2.2s2.6-0.8,4.1-0.8c1.4,0,2.6,0.2,3.8,0.7c1.2,0.5,2.2,1.2,3,2.1c0.9,0.9,1.5,2,2,3.2
				s0.7,2.5,0.6,4v1.7h-16.2l-0.9-3.3H270l-0.6,0.7v-0.8c0-0.7-0.3-1.3-0.7-1.9c-0.4-0.6-0.9-1-1.5-1.3c-0.6-0.3-1.3-0.5-2.1-0.5
				c-1.1,0-2.1,0.2-2.8,0.7c-0.7,0.5-1.4,1.1-1.8,1.9s-0.6,1.9-0.6,3s0.3,2.3,0.8,3.2s1.3,1.6,2.2,2.1c1,0.5,2.1,0.7,3.4,0.7
				c0.9,0,1.7-0.1,2.4-0.4s1.5-0.8,2.4-1.5l2.6,3.6c-0.7,0.7-1.5,1.2-2.4,1.7s-1.8,0.8-2.7,1S266.6,31.8,265.7,31.8L265.7,31.8z"/>
			<path class="st0" d="M288.1,31.8c-2.2,0-4.1-0.4-5.7-1.3s-2.9-2.1-3.8-3.7s-1.4-3.3-1.4-5.3c0-1.5,0.2-3,0.8-4.3s1.2-2.4,2.1-3.4
				c0.9-0.9,2-1.7,3.3-2.2s2.6-0.8,4.1-0.8c1.4,0,2.6,0.2,3.8,0.7c1.2,0.5,2.2,1.2,3,2.1c0.9,0.9,1.5,2,2,3.2s0.7,2.5,0.6,4v1.7
				h-16.2l-0.9-3.3h12.6l-0.6,0.7v-0.8c0-0.7-0.3-1.3-0.7-1.9c-0.4-0.6-0.9-1-1.5-1.3c-0.6-0.3-1.3-0.5-2.1-0.5
				c-1.1,0-2.1,0.2-2.8,0.7c-0.7,0.5-1.4,1.1-1.8,1.9s-0.6,1.9-0.6,3s0.3,2.3,0.8,3.2s1.3,1.6,2.2,2.1c1,0.5,2.1,0.7,3.4,0.7
				c0.9,0,1.7-0.1,2.4-0.4s1.5-0.8,2.4-1.5l2.6,3.6c-0.7,0.7-1.5,1.2-2.4,1.7s-1.8,0.8-2.7,1S289,31.8,288.1,31.8z"/>
			<path class="st0" d="M108.7,79.8c-1.9,0-3.7-0.3-5.3-1s-3-1.6-4.2-2.8c-1.2-1.2-2.1-2.7-2.7-4.4c-0.7-1.7-1-3.5-1-5.5
				s0.3-3.7,1-5.4s1.6-3.1,2.9-4.3s2.6-2.2,4.3-2.9s3.4-1,5.3-1c1.3,0,2.6,0.2,3.8,0.6s2.3,0.9,3.3,1.6c1,0.7,1.9,1.5,2.6,2.3
				l-3.2,3.5c-0.7-0.7-1.3-1.3-2-1.7c-0.7-0.5-1.4-0.8-2.2-1.1c-0.8-0.2-1.5-0.4-2.3-0.4c-1.2,0-2.3,0.2-3.3,0.7s-1.9,1-2.7,1.8
				s-1.3,1.7-1.8,2.8c-0.4,1.1-0.7,2.3-0.7,3.6s0.2,2.6,0.6,3.7s1,2,1.8,2.8s1.7,1.4,2.8,1.8s2.3,0.6,3.6,0.6c0.8,0,1.7-0.1,2.4-0.3
				c0.8-0.2,1.5-0.6,2.2-1s1.3-0.9,1.8-1.5l2.4,3.9c-0.6,0.7-1.4,1.3-2.4,1.9s-2.2,1-3.4,1.3C111.2,79.6,110,79.8,108.7,79.8
				L108.7,79.8z"/>
			<path class="st0" d="M125.7,88.2l4.3-9.9v3.1l-9.9-22.1h5.4l5.5,13.1c0.2,0.3,0.4,0.8,0.5,1.3c0.2,0.6,0.3,1.1,0.5,1.6l-0.9,0.3
				c0.2-0.5,0.4-1,0.6-1.5c0.2-0.6,0.4-1.1,0.6-1.7l4.7-13.1h5.4L134,79.4l-3.4,8.8L125.7,88.2L125.7,88.2z"/>
			<path class="st0" d="M156.4,79.8c-0.9,0-1.8-0.1-2.6-0.4c-0.9-0.3-1.6-0.6-2.3-1.1s-1.3-1-1.7-1.5c-0.5-0.6-0.8-1.2-0.9-1.7
				l1.1-0.5l-0.1,4.8h-4.5V51.2h4.7V64l-0.8-0.4c0.1-0.6,0.4-1.2,0.9-1.7c0.4-0.5,1-1,1.7-1.5c0.7-0.4,1.4-0.8,2.2-1.1
				s1.6-0.4,2.4-0.4c1.8,0,3.4,0.5,4.8,1.3c1.4,0.9,2.5,2.1,3.3,3.7c0.8,1.6,1.2,3.4,1.2,5.4s-0.4,3.8-1.2,5.4s-1.9,2.8-3.3,3.7
				C159.7,79.3,158.1,79.8,156.4,79.8L156.4,79.8z M155.4,75.7c1.1,0,2-0.3,2.9-0.8s1.5-1.3,2-2.2s0.7-2.1,0.7-3.3s-0.2-2.3-0.7-3.2
				c-0.5-0.9-1.1-1.7-2-2.2c-0.8-0.5-1.8-0.8-2.9-0.8s-2.1,0.3-2.9,0.8c-0.8,0.5-1.5,1.3-2,2.2s-0.7,2-0.7,3.2s0.2,2.3,0.7,3.3
				s1.1,1.7,2,2.2S154.3,75.7,155.4,75.7L155.4,75.7z"/>
			<path class="st0" d="M179.1,79.8c-2.1,0-4-0.4-5.6-1.3s-2.9-2.1-3.8-3.6s-1.4-3.3-1.4-5.3c0-1.6,0.2-3,0.8-4.3
				c0.5-1.3,1.2-2.4,2.1-3.4c0.9-1,2-1.7,3.2-2.2s2.6-0.8,4.1-0.8c1.3,0,2.6,0.2,3.7,0.8c1.1,0.5,2.1,1.2,3,2.1s1.5,1.9,1.9,3.1
				c0.4,1.2,0.6,2.5,0.6,3.9v1.6h-16.3l-0.9-3.2h13.2l-0.6,0.7V67c-0.1-0.8-0.3-1.5-0.8-2.1s-1-1.1-1.7-1.4
				c-0.7-0.3-1.4-0.5-2.2-0.5c-1.2,0-2.3,0.2-3.1,0.7c-0.9,0.5-1.5,1.2-1.9,2.1s-0.6,2-0.6,3.4s0.3,2.4,0.8,3.4s1.3,1.7,2.3,2.2
				s2.2,0.8,3.5,0.8c0.9,0,1.8-0.2,2.6-0.5s1.6-0.8,2.6-1.6l2.3,3.2c-0.7,0.6-1.5,1.2-2.3,1.6c-0.9,0.4-1.8,0.8-2.8,1.1
				S180,79.8,179.1,79.8L179.1,79.8z"/>
			<path class="st0" d="M192,79.4V59.3h4.6l0.1,6.4l-0.6-1.4c0.3-1,0.8-1.9,1.4-2.7s1.5-1.5,2.4-1.9c0.9-0.5,1.9-0.7,2.8-0.7
				c0.4,0,0.8,0,1.2,0.1s0.7,0.2,1,0.3l-1.3,5.1c-0.3-0.2-0.6-0.3-1-0.4c-0.4-0.1-0.8-0.2-1.2-0.2c-0.6,0-1.2,0.1-1.8,0.4
				c-0.6,0.2-1.1,0.6-1.5,1s-0.8,0.9-1,1.5s-0.4,1.2-0.4,1.9v10.7L192,79.4L192,79.4z"/>
			<path class="st0" d="M214.8,79.8c-1.8,0-3.4-0.3-4.8-0.9s-2.6-1.4-3.4-2.6l3.1-2.6c0.8,0.9,1.6,1.5,2.6,1.9
				c0.9,0.4,1.9,0.6,3,0.6c0.4,0,0.8-0.1,1.2-0.2s0.6-0.2,0.9-0.5s0.4-0.4,0.6-0.7s0.2-0.6,0.2-0.9c0-0.6-0.2-1.1-0.7-1.4
				c-0.2-0.2-0.6-0.4-1.2-0.6s-1.2-0.4-2.1-0.6c-1.4-0.4-2.5-0.8-3.4-1.2s-1.6-1-2.1-1.6c-0.4-0.5-0.8-1-1-1.6s-0.3-1.3-0.3-2
				c0-0.9,0.2-1.7,0.6-2.4s0.9-1.3,1.6-1.9c0.7-0.5,1.5-0.9,2.4-1.2s1.9-0.4,2.9-0.4s2,0.1,2.9,0.4s1.8,0.6,2.7,1.1
				c0.8,0.5,1.5,1,2.1,1.7l-2.6,2.9c-0.5-0.5-1-0.9-1.6-1.2c-0.6-0.3-1.1-0.6-1.7-0.9c-0.6-0.2-1.1-0.3-1.6-0.3s-0.9,0-1.3,0.1
				c-0.4,0.1-0.7,0.2-0.9,0.4s-0.4,0.4-0.6,0.7c-0.1,0.3-0.2,0.6-0.2,0.9c0,0.3,0.1,0.6,0.2,0.9c0.1,0.3,0.3,0.5,0.6,0.7
				s0.7,0.4,1.3,0.6s1.3,0.4,2.2,0.7c1.2,0.3,2.3,0.7,3.1,1.1s1.5,0.9,2,1.4s0.8,1,1,1.6s0.3,1.3,0.3,2c0,1.2-0.3,2.3-1,3.2
				c-0.7,0.9-1.6,1.7-2.7,2.2C217.5,79.5,216.2,79.8,214.8,79.8L214.8,79.8z"/>
			<path class="st0" d="M235.9,79.8c-2.1,0-4-0.4-5.6-1.3s-2.9-2.1-3.8-3.6c-0.9-1.5-1.4-3.3-1.4-5.3c0-1.6,0.2-3,0.8-4.3
				c0.5-1.3,1.2-2.4,2.1-3.4s2-1.7,3.2-2.2c1.3-0.5,2.6-0.8,4.1-0.8c1.3,0,2.6,0.2,3.7,0.8s2.1,1.2,3,2.1s1.5,1.9,1.9,3.1
				c0.4,1.2,0.6,2.5,0.6,3.9v1.6h-16.3l-0.9-3.2h13.2l-0.6,0.7V67c-0.1-0.8-0.3-1.5-0.8-2.1s-1-1.1-1.7-1.4S236,63,235.2,63
				c-1.2,0-2.3,0.2-3.1,0.7c-0.9,0.5-1.5,1.2-1.9,2.1s-0.6,2-0.6,3.4s0.3,2.4,0.8,3.4c0.6,1,1.3,1.7,2.3,2.2s2.2,0.8,3.5,0.8
				c0.9,0,1.8-0.2,2.6-0.5s1.6-0.8,2.6-1.6l2.3,3.2c-0.7,0.6-1.5,1.2-2.3,1.6c-0.9,0.4-1.8,0.8-2.8,1.1
				C237.8,79.6,236.9,79.8,235.9,79.8L235.9,79.8z"/>
			<path class="st0" d="M257.5,79.8c-1.9,0-3.6-0.5-5.1-1.4s-2.7-2.2-3.5-3.7s-1.3-3.3-1.3-5.3s0.4-3.8,1.3-5.3
				c0.9-1.6,2-2.8,3.5-3.7s3.2-1.4,5.1-1.4c1.9,0,3.4,0.3,4.9,1s2.6,1.6,3.4,2.9l-2.6,3.1c-0.4-0.5-0.9-1-1.5-1.4s-1.2-0.8-1.9-1
				c-0.7-0.2-1.3-0.4-2-0.4c-1.1,0-2.1,0.3-3,0.8c-0.9,0.5-1.6,1.3-2.1,2.2s-0.8,2-0.8,3.2s0.3,2.3,0.8,3.2c0.5,0.9,1.2,1.7,2.1,2.2
				s1.9,0.8,3,0.8c0.7,0,1.3-0.1,1.9-0.3c0.6-0.2,1.2-0.5,1.8-0.9s1.1-0.9,1.6-1.5l2.6,3.2c-0.9,1.1-2,2-3.6,2.7
				S259.1,79.8,257.5,79.8L257.5,79.8z"/>
			<path class="st0" d="M276.4,79.8c-1.5,0-2.7-0.3-3.8-1c-1.1-0.7-1.9-1.6-2.4-2.8s-0.8-2.7-0.8-4.3V59.3h4.7v11.4
				c0,1.1,0.2,2,0.5,2.7s0.8,1.3,1.5,1.7c0.6,0.4,1.4,0.6,2.3,0.6c0.7,0,1.3-0.1,1.8-0.3c0.5-0.2,1-0.5,1.4-0.9s0.7-0.9,1-1.4
				s0.3-1.1,0.3-1.8v-12h4.7v20.1H283l-0.1-4.2l0.8-0.5c-0.3,1-0.8,1.8-1.5,2.6s-1.6,1.3-2.6,1.8C278.6,79.6,277.5,79.8,276.4,79.8
				L276.4,79.8z"/>
			<path class="st0" d="M292.9,79.4V59.3h4.6l0.1,6.4l-0.6-1.4c0.3-1,0.8-1.9,1.5-2.7s1.5-1.5,2.4-1.9c0.9-0.5,1.9-0.7,2.8-0.7
				c0.4,0,0.8,0,1.2,0.1c0.4,0.1,0.7,0.2,1,0.3l-1.3,5.1c-0.3-0.2-0.6-0.3-1-0.4c-0.4-0.1-0.8-0.2-1.2-0.2c-0.6,0-1.2,0.1-1.8,0.4
				s-1.1,0.6-1.5,1s-0.8,0.9-1,1.5s-0.4,1.2-0.4,1.9v10.7L292.9,79.4L292.9,79.4z"/>
			<path class="st0" d="M311.8,55c-0.9,0-1.7-0.2-2.2-0.7s-0.8-1.1-0.8-2c0-0.8,0.3-1.5,0.8-2s1.3-0.8,2.2-0.8c1,0,1.7,0.2,2.2,0.7
				s0.8,1.2,0.8,2s-0.3,1.4-0.8,1.9C313.5,54.8,312.7,55,311.8,55L311.8,55z M309.5,79.4V59.3h4.7v20.1H309.5z"/>
			<path class="st0" d="M318.4,63.7v-4.3h13v4.3H318.4z M322.3,79.4V54.2h4.7v25.2H322.3z"/>
			<path class="st0" d="M338,88.2l4.3-9.9v3.1l-9.9-22.1h5.4l5.5,13.1c0.2,0.3,0.4,0.8,0.5,1.3c0.2,0.6,0.3,1.1,0.5,1.6l-1,0.3
				c0.2-0.5,0.4-1,0.6-1.5s0.4-1.1,0.6-1.7l4.7-13.1h5.5l-8.4,20.1l-3.4,8.8L338,88.2L338,88.2z"/>
		</g>
	</g>
</g>
</svg>
