<svg xmlns="http://www.w3.org/2000/svg" width="275.635" height="68.611" viewBox="0 0 275.635 68.611">
  <g id="wheregroup-logo" transform="translate(0 0.01)">
    <g id="Group_3" data-name="Group 3" transform="translate(0 -0.01)">
      <path id="Path_1" data-name="Path 1" d="M1.631,16.675A32.9,32.9,0,0,1,18.52,4.6a5.52,5.52,0,0,0-.777,2.718c-.039,9.241,12.308,14.482,20,15.259,6.406.621,15.764-2.446,12.425-10.522A12.581,12.581,0,0,0,48.456,9.3,41.75,41.75,0,0,1,61.424,22.771,10.8,10.8,0,0,0,58.9,21.14c-8.076-3.456-10.639,7.066-10.134,13.046.621,7.183,5.2,20.073,14.249,19.646a4.944,4.944,0,0,0,2.174-.7A33.228,33.228,0,0,1,54.513,68.47a17.616,17.616,0,0,0,.932-4C56.532,54.376,49.465,45.213,38.982,45.1c-11.8-.155-21.7,10.25-21.859,21.859a15.7,15.7,0,0,0,.621,4.465A41.684,41.684,0,0,1,0,54.026,18.639,18.639,0,0,0,5.63,55c11.764-.116,22.287-9.978,22.015-22.015-.233-10.871-9.707-18.52-20.268-17.7A18.326,18.326,0,0,0,1.631,16.675Z" transform="translate(0 -2.81)" fill="#fff"/>
      <path id="Path_2" data-name="Path 2" d="M61.7,4.77C61.661-.084,68.3-.394,71.717.227c4.465.777,9.94,3.3,11.8,7.765,2.213,5.358-4.543,7.105-8.542,6.678C70.086,14.088,61.739,10.71,61.7,4.77Z" transform="translate(-37.744 0.01)" fill="#fff"/>
    </g>
    <g id="Group_4" data-name="Group 4" transform="translate(81.885 19.635)">
      <path id="Path_3" data-name="Path 3" d="M226,54.334c1.087,3.533,2.135,6.756,3.184,9.668,1.048,2.873,2.1,5.552,3.145,7.959.738-2.6,1.514-5.669,2.291-9.2s1.514-7.261,2.213-11.221h2.213c-.427,2.368-.815,4.582-1.2,6.639s-.815,4.038-1.281,5.9q-.641,2.8-1.4,5.358c-.5,1.708-1.009,3.378-1.592,5.047h-2.407l-1.553-3.805c-.5-1.242-1.048-2.563-1.553-3.883s-1.048-2.718-1.553-4.193-1.048-2.99-1.553-4.659c-.5,1.631-1.048,3.184-1.553,4.659s-1.048,2.873-1.553,4.193c-.5,1.359-1.048,2.64-1.553,3.883s-1.048,2.485-1.592,3.766h-2.33c-.582-1.67-1.165-3.339-1.631-5.047s-.971-3.494-1.4-5.358-.854-3.844-1.242-5.9-.777-4.271-1.2-6.639h2.33q.524,2.912,1.048,5.708c.349,1.864.738,3.689,1.126,5.436s.777,3.417,1.2,4.97c.388,1.553.815,2.99,1.2,4.31.932-2.446,1.98-5.125,3.067-7.959,1.087-2.873,2.174-6.057,3.223-9.629Z" transform="translate(-210.9 -51.146)" fill="#fff"/>
      <path id="Path_4" data-name="Path 4" d="M295.5,74.608V51.7h2.135v6.29a13.92,13.92,0,0,1,2.174-.621,8.251,8.251,0,0,1,2.174-.194,8.014,8.014,0,0,1,3.3.582,5.426,5.426,0,0,1,2.135,1.592,6.467,6.467,0,0,1,1.126,2.524,14.872,14.872,0,0,1,.311,3.223v9.59h-2.174V65.716a20.912,20.912,0,0,0-.233-3.106,4.986,4.986,0,0,0-.815-2.058,3.308,3.308,0,0,0-1.553-1.165,8.4,8.4,0,0,0-2.407-.349c-.388,0-.815.039-1.2.078-.427.078-.815.155-1.2.233s-.7.155-1.01.233a3.418,3.418,0,0,0-.582.194V74.53H295.5Z" transform="translate(-262.653 -51.268)" fill="#fff"/>
      <path id="Path_5" data-name="Path 5" d="M343.192,74.53a10.419,10.419,0,0,1,.66-3.921,8.6,8.6,0,0,1,1.708-2.8,6.745,6.745,0,0,1,2.368-1.67,7.577,7.577,0,0,1,2.757-.544,6.468,6.468,0,0,1,5.009,2.058c1.242,1.359,1.864,3.494,1.864,6.368v.544c0,.194-.039.349-.039.5H345.483a7.7,7.7,0,0,0,1.553,4.853,5.845,5.845,0,0,0,4.659,1.708,8.64,8.64,0,0,0,2.8-.349,9.712,9.712,0,0,0,1.475-.582l.388,1.864a8.467,8.467,0,0,1-1.747.621,9.707,9.707,0,0,1-2.99.349,9.9,9.9,0,0,1-3.844-.66,6.979,6.979,0,0,1-2.64-1.864,7.088,7.088,0,0,1-1.475-2.834A13.082,13.082,0,0,1,343.192,74.53Zm12.153-1.359a6.99,6.99,0,0,0-1.242-4.193,4.051,4.051,0,0,0-3.378-1.475,4.575,4.575,0,0,0-2.058.466,5.038,5.038,0,0,0-1.592,1.242A5.55,5.55,0,0,0,346.027,71a6.963,6.963,0,0,0-.427,2.135Z" transform="translate(-291.825 -59.771)" fill="#fff"/>
      <path id="Path_6" data-name="Path 6" d="M400.124,65.691a11.79,11.79,0,0,1,2.019.155,5.1,5.1,0,0,1,1.32.349l-.427,1.864a3.442,3.442,0,0,0-1.087-.272,13.176,13.176,0,0,0-2.135-.155,11.035,11.035,0,0,0-2.252.194,6.258,6.258,0,0,0-1.126.349V83.2H394.3V66.817a15.749,15.749,0,0,1,2.291-.738A13.514,13.514,0,0,1,400.124,65.691Z" transform="translate(-323.092 -59.823)" fill="#fff"/>
      <path id="Path_7" data-name="Path 7" d="M425.293,74.53a10.42,10.42,0,0,1,.66-3.921,8.606,8.606,0,0,1,1.708-2.8,6.746,6.746,0,0,1,2.368-1.67,7.577,7.577,0,0,1,2.757-.544,6.468,6.468,0,0,1,5.009,2.058c1.242,1.359,1.864,3.494,1.864,6.368v.544c0,.194-.039.349-.039.5H427.584a7.7,7.7,0,0,0,1.553,4.853,5.845,5.845,0,0,0,4.659,1.708,8.64,8.64,0,0,0,2.8-.349,9.714,9.714,0,0,0,1.475-.582l.388,1.864a8.467,8.467,0,0,1-1.747.621,9.707,9.707,0,0,1-2.99.349,9.9,9.9,0,0,1-3.844-.66,6.979,6.979,0,0,1-2.64-1.864,7.088,7.088,0,0,1-1.475-2.834A13.264,13.264,0,0,1,425.293,74.53Zm12.153-1.359a6.99,6.99,0,0,0-1.242-4.193,4.051,4.051,0,0,0-3.378-1.475,4.575,4.575,0,0,0-2.058.466,5.038,5.038,0,0,0-1.592,1.242A5.55,5.55,0,0,0,428.128,71a8.429,8.429,0,0,0-.466,2.135h9.784Z" transform="translate(-342.049 -59.771)" fill="#fff"/>
      <path id="Path_8" data-name="Path 8" d="M492.192,63.056h2.252v10.25c-.815.272-1.631.5-2.485.7a21.982,21.982,0,0,1-4.543.427,11.811,11.811,0,0,1-4.193-.777,9.5,9.5,0,0,1-3.339-2.291,11.043,11.043,0,0,1-2.213-3.727,15.208,15.208,0,0,1-.777-5.125,14.359,14.359,0,0,1,.854-5.125,10.616,10.616,0,0,1,2.33-3.727,9.635,9.635,0,0,1,3.417-2.291,10.319,10.319,0,0,1,4.193-.777,13.828,13.828,0,0,1,4.193.544,8.884,8.884,0,0,1,2.407,1.048l-.777,1.941a8.568,8.568,0,0,0-2.524-1.087,14.773,14.773,0,0,0-3.456-.427,8.546,8.546,0,0,0-3.261.621,7.538,7.538,0,0,0-2.64,1.9,9.537,9.537,0,0,0-1.786,3.106,13.5,13.5,0,0,0-.66,4.31,14.615,14.615,0,0,0,.544,4.116,8.608,8.608,0,0,0,1.592,3.145A7.305,7.305,0,0,0,484,71.831a9.173,9.173,0,0,0,3.689.7,17.393,17.393,0,0,0,2.834-.194,10.038,10.038,0,0,0,1.553-.349l.116-8.93Z" transform="translate(-373.615 -50.587)" fill="#fff"/>
      <path id="Path_9" data-name="Path 9" d="M542.824,65.691a11.79,11.79,0,0,1,2.019.155,5.1,5.1,0,0,1,1.32.349l-.427,1.864a3.442,3.442,0,0,0-1.087-.272,13.176,13.176,0,0,0-2.135-.155,11.035,11.035,0,0,0-2.252.194,6.261,6.261,0,0,0-1.126.349V83.2H537V66.817a15.748,15.748,0,0,1,2.291-.738A13.333,13.333,0,0,1,542.824,65.691Z" transform="translate(-410.386 -59.823)" fill="#fff"/>
      <path id="Path_10" data-name="Path 10" d="M583.486,74.538a12.007,12.007,0,0,1-.582,3.689,8.307,8.307,0,0,1-1.631,2.834,6.677,6.677,0,0,1-2.485,1.786,7.671,7.671,0,0,1-8.775-1.786,7.958,7.958,0,0,1-1.631-2.834,11.972,11.972,0,0,1,0-7.377,7.958,7.958,0,0,1,1.631-2.834,7.242,7.242,0,0,1,2.485-1.825,8.04,8.04,0,0,1,6.29,0,7.631,7.631,0,0,1,2.485,1.825A7.959,7.959,0,0,1,582.9,70.85,9.807,9.807,0,0,1,583.486,74.538Zm-2.291,0a8.283,8.283,0,0,0-1.475-5.125,5.2,5.2,0,0,0-7.377-.7,3.966,3.966,0,0,0-.7.7,8.042,8.042,0,0,0-1.475,5.125,8.086,8.086,0,0,0,1.475,5.086,5.248,5.248,0,0,0,7.416.66,5.3,5.3,0,0,0,.66-.66,8.086,8.086,0,0,0,1.475-5.086Z" transform="translate(-429.228 -59.741)" fill="#fff"/>
      <path id="Path_11" data-name="Path 11" d="M634.8,83.079c-.621.155-1.514.388-2.6.582a22.749,22.749,0,0,1-3.96.349,7.768,7.768,0,0,1-3.223-.582,5.3,5.3,0,0,1-2.1-1.592,7.3,7.3,0,0,1-1.165-2.485,14.9,14.9,0,0,1-.349-3.223V66.5h2.135v8.93a16.1,16.1,0,0,0,.272,3.067,4.686,4.686,0,0,0,.854,2.019,3.5,3.5,0,0,0,1.553,1.126,6.57,6.57,0,0,0,2.291.349,19.689,19.689,0,0,0,2.64-.155,6.346,6.346,0,0,0,1.437-.311V66.5h2.135l.078,16.579Z" transform="translate(-462.016 -60.322)" fill="#fff"/>
      <path id="Path_12" data-name="Path 12" d="M674.435,89.307H672.3V66.632a18.825,18.825,0,0,1,2.446-.621,20.545,20.545,0,0,1,3.766-.311,9.342,9.342,0,0,1,3.417.621,7.236,7.236,0,0,1,2.64,1.786,7.6,7.6,0,0,1,1.708,2.834,10.3,10.3,0,0,1,.621,3.727,13.582,13.582,0,0,1-.5,3.3,8.875,8.875,0,0,1-1.2,2.524,6.486,6.486,0,0,1-2.562,2.135,8.642,8.642,0,0,1-3.261.854,14.426,14.426,0,0,1-4.97-.582l.039,6.406Zm0-8.425a12.132,12.132,0,0,0,4.7.7,5.88,5.88,0,0,0,2.563-.7,5.238,5.238,0,0,0,1.825-1.747,9.019,9.019,0,0,0,1.165-4.465,7.028,7.028,0,0,0-1.708-5.2,5.856,5.856,0,0,0-4.465-1.786,18.916,18.916,0,0,0-2.562.155,9.039,9.039,0,0,0-1.475.311l-.039,12.735Z" transform="translate(-493.154 -59.832)" fill="#fff"/>
    </g>
  </g>
</svg>
