<?xml version="1.0" encoding="UTF-8"?>
<svg id="Logo" xmlns="http://www.w3.org/2000/svg" version="1.1" viewBox="0 0 138.08 45.79">
  <!-- Generator: Adobe Illustrator 30.2.1, SVG Export Plug-In . SVG Version: 2.1.1 Build 1)  -->
  <path d="M26.44.36C10.42-2.57-3.32,12.99.71,28.18c4.29,16.14,29.85,24.15,41.82,11.07,5.72-6.25,5.64-16.4,1.64-24.12C40.45,7.94,34.78,1.88,26.44.36Z" fill="#fff"/>
  <g>
    <path d="M54.43,8.78l6.48-3.38h-1s-5.48-.01-5.48-.01v-1.68h7.03v3.39l-6.46,3.37h6.46v1.69h-7.03v-3.38Z" fill="#fff"/>
    <path d="M65.46,6c2.01,0,3.21,1.13,3.21,3.02v.5h-4.53c.06.85.55,1.38,1.39,1.38.73,0,1.21-.32,1.34-.88h1.81c-.18,1.3-1.28,2.25-3.14,2.25-2.03,0-3.24-1.31-3.24-3.18s1.31-3.11,3.15-3.11ZM66.9,8.54c-.06-.78-.61-1.2-1.4-1.2s-1.3.42-1.37,1.2h2.77Z" fill="#fff"/>
    <path d="M69.78,6.12h1.82v1.46c.3-.92,1.12-1.58,2.42-1.58,1.52,0,2.45,1.02,2.45,2.87v3.3h-1.83v-3.03c0-1.12-.34-1.54-1.27-1.54-1.08,0-1.76.61-1.76,2.3v2.27h-1.82v-6.04Z" fill="#fff"/>
    <path d="M82.6,12.16h-3.05c-.66,0-1.01-.35-1.01-1.01v-3.44h-1.42v-1.6h1.42v-1.19l1.82-.56v1.75h1.99v1.6h-1.99v2.85h2.23v1.6Z" fill="#fff"/>
    <path d="M84.72,6.12h3.91v1.6h-3.09v4.45h-1.82v-5.05c0-.66.36-1,1.01-1Z" fill="#fff"/>
    <path d="M89.38,9.42v-3.3h1.83v3.03c0,1.12.34,1.54,1.27,1.54,1.07,0,1.76-.61,1.76-2.3v-2.27h1.82v6.04h-1.82v-1.46c-.31.92-1.1,1.58-2.42,1.58-1.52,0-2.45-1.02-2.45-2.87Z" fill="#fff"/>
    <path d="M97.46,6.12h1.82v1.33c.29-.77.9-1.45,2.04-1.45,1.02,0,1.52.56,1.76,1.42.32-.78,1.02-1.42,2.22-1.42,1.69,0,2.18,1.27,2.18,3v3.17h-1.82v-3.05c0-1.14-.22-1.52-.9-1.52-1.12,0-1.38.9-1.38,2.42v2.15h-1.82v-3.05c0-1.14-.22-1.52-.9-1.52-1.12,0-1.38.9-1.38,2.42v2.15h-1.82v-6.04Z" fill="#fff"/>
    <path d="M54.64,17.35h3.11c2.27,0,4.62.59,4.62,4.22s-2.35,4.23-4.62,4.23h-3.11v-8.46ZM57.75,24.11c1.46,0,2.69-.08,2.69-2.54s-1.24-2.54-2.69-2.54h-1.19v5.09h1.19Z" fill="#fff"/>
    <path d="M63.27,24.21h1.69v-2.85h-1.44v-1.59h2.15c.61,0,.97.3.97.94v3.51h1.7v1.6h-5.07v-1.6ZM65.66,17.16c.67,0,1.15.35,1.15.98s-.48.97-1.15.97-1.12-.32-1.12-.97.44-.98,1.12-.98Z" fill="#fff"/>
    <path d="M68.97,22.77c0-1.73.89-3.13,2.79-3.13,1.33,0,2.02.66,2.36,1.34v-1.22h1.82v7.57c0,.65-.36.97-1.01.97h-5.03v-1.6h4.21v-2.12c-.38.74-1.09,1.34-2.36,1.34-1.91,0-2.79-1.42-2.79-3.15ZM72.44,24.33c1.04,0,1.67-.49,1.67-1.56s-.62-1.54-1.67-1.54-1.65.47-1.65,1.54.61,1.56,1.65,1.56Z" fill="#fff"/>
    <path d="M77.13,24.21h1.69v-2.85h-1.44v-1.59h2.15c.61,0,.97.3.97.94v3.51h1.7v1.6h-5.07v-1.6ZM79.51,17.16c.67,0,1.15.35,1.15.98s-.48.97-1.15.97-1.12-.32-1.12-.97.44-.98,1.12-.98Z" fill="#fff"/>
    <path d="M87.67,25.8h-3.05c-.66,0-1.01-.35-1.01-1.01v-3.44h-1.42v-1.59h1.42v-1.19l1.82-.56v1.75h1.99v1.59h-1.99v2.85h2.23v1.6Z" fill="#fff"/>
    <path d="M90.83,22.3l1.96-.2c-.01-.73-.36-1.06-1.25-1.06-.76,0-1.16.32-1.21.98h-1.71c.05-1.54,1.37-2.39,3-2.39s3.01.84,3.01,2.7v1.87h.88v1.6h-1.32c-.56,0-.9-.31-.9-.88v-.65c-.28.89-.94,1.64-2.63,1.64-1.88,0-2.18-1.15-2.18-1.78,0-1.03.6-1.65,2.36-1.85ZM91.09,24.47c.96,0,1.69-.56,1.69-1.42l-1.62.23c-.59.07-.91.17-.91.56,0,.47.38.62.84.62Z" fill="#fff"/>
    <path d="M96.15,24.21h1.67v-5.62h-1.42v-1.59h2.3c.6,0,.94.31.94.91v6.31h1.69v1.6h-5.18v-1.6Z" fill="#fff"/>
    <path d="M105.06,19.64c2.01,0,3.21,1.13,3.21,3.02v.5h-4.53c.06.85.55,1.38,1.39,1.38.73,0,1.21-.32,1.34-.88h1.81c-.18,1.3-1.28,2.25-3.14,2.25-2.03,0-3.24-1.31-3.24-3.18s1.31-3.11,3.15-3.11ZM106.5,22.18c-.06-.78-.61-1.2-1.4-1.2s-1.3.42-1.37,1.2h2.77Z" fill="#fff"/>
    <path d="M58.48,39.6c-2.89,0-4.16-1.25-4.16-3.42h1.98c0,1.28.59,1.81,2.23,1.81,1.16,0,1.66-.28,1.66-.9,0-.38-.28-.67-.88-.83l-2.72-.72c-1.43-.37-1.91-1.21-1.91-2.27,0-1.6,1.19-2.45,3.33-2.45,2.57,0,3.85,1.21,3.85,3.03h-1.98c0-1.01-.59-1.45-1.85-1.45-.9,0-1.38.25-1.38.83,0,.32.19.58.8.74l2.66.66c1.38.35,2.04,1.15,2.04,2.36,0,1.58-1.07,2.59-3.68,2.59Z" fill="#fff"/>
    <path d="M66.39,33.28c1.88,0,3.38,1.07,3.38,3.13s-1.5,3.15-3.38,3.15-3.39-1.07-3.39-3.15,1.49-3.13,3.39-3.13ZM66.39,37.97c.95,0,1.55-.58,1.55-1.56s-.6-1.54-1.55-1.54-1.57.56-1.57,1.54.6,1.56,1.57,1.56Z" fill="#fff"/>
    <path d="M70.73,36.7v-3.3h1.83v3.03c0,1.12.34,1.54,1.27,1.54,1.07,0,1.76-.61,1.76-2.3v-2.27h1.82v6.04h-1.82v-1.46c-.31.92-1.1,1.58-2.42,1.58-1.52,0-2.45-1.02-2.45-2.87Z" fill="#fff"/>
    <path d="M85.14,33.4l-1.83,6.04h-3.26l-1.85-6.04h1.85l1.67,5.49,1.64-5.49h1.79Z" fill="#fff"/>
    <path d="M88.61,33.28c2.01,0,3.21,1.13,3.21,3.02v.5h-4.53c.06.85.55,1.38,1.39,1.38.73,0,1.21-.32,1.34-.88h1.81c-.18,1.3-1.28,2.25-3.14,2.25-2.03,0-3.24-1.31-3.24-3.18s1.31-3.11,3.15-3.11ZM90.04,35.82c-.06-.78-.61-1.2-1.4-1.2s-1.3.42-1.37,1.2h2.77Z" fill="#fff"/>
    <path d="M93.95,33.4h3.91v1.59h-3.09v4.45h-1.82v-5.05c0-.66.36-1,1.01-1Z" fill="#fff"/>
    <path d="M100.81,35.94l1.96-.2c-.01-.73-.36-1.06-1.25-1.06-.76,0-1.16.32-1.21.98h-1.71c.05-1.54,1.37-2.39,3-2.39s3.01.84,3.01,2.7v1.87h.88v1.6h-1.32c-.56,0-.9-.31-.9-.88v-.65c-.28.89-.94,1.64-2.63,1.64-1.88,0-2.18-1.15-2.18-1.78,0-1.03.6-1.65,2.36-1.85ZM100.19,30.87c.62,0,1.08.34,1.08.92,0,.62-.46.94-1.08.94s-1.06-.31-1.06-.94c0-.59.42-.92,1.06-.92ZM101.08,38.11c.96,0,1.69-.56,1.69-1.42l-1.62.23c-.59.07-.91.17-.91.56,0,.47.38.62.84.62ZM103.04,30.87c.63,0,1.08.34,1.08.92,0,.62-.44.94-1.08.94s-1.06-.31-1.06-.94c0-.59.41-.92,1.06-.92Z" fill="#fff"/>
    <path d="M106.38,33.4h1.82v1.46c.3-.92,1.12-1.58,2.42-1.58,1.52,0,2.45,1.02,2.45,2.87v3.3h-1.83v-3.03c0-1.12-.33-1.54-1.27-1.54-1.08,0-1.76.61-1.76,2.3v2.27h-1.82v-6.04Z" fill="#fff"/>
    <path d="M114.14,37.85h1.69v-2.85h-1.44v-1.59h2.15c.61,0,.97.3.97.94v3.51h1.7v1.6h-5.07v-1.6ZM116.53,30.8c.67,0,1.15.35,1.15.98s-.48.97-1.15.97-1.12-.32-1.12-.97.44-.98,1.12-.98Z" fill="#fff"/>
    <path d="M124.68,39.44h-3.05c-.66,0-1.01-.35-1.01-1.01v-3.44h-1.42v-1.59h1.42v-1.19l1.82-.56v1.75h1.99v1.59h-1.99v2.85h2.23v1.6Z" fill="#fff"/>
    <path d="M127.84,35.94l1.96-.2c-.01-.73-.36-1.06-1.25-1.06-.76,0-1.16.32-1.21.98h-1.71c.05-1.54,1.37-2.39,3-2.39s3.01.84,3.01,2.7v1.87h.88v1.6h-1.32c-.56,0-.9-.31-.9-.88v-.65c-.28.89-.94,1.64-2.63,1.64-1.88,0-2.18-1.15-2.18-1.78,0-1.03.6-1.65,2.36-1.85ZM127.21,30.87c.62,0,1.08.34,1.08.92,0,.62-.46.94-1.08.94s-1.06-.31-1.06-.94c0-.59.42-.92,1.06-.92ZM128.1,38.11c.96,0,1.69-.56,1.69-1.42l-1.62.23c-.59.07-.91.17-.91.56,0,.47.38.62.84.62ZM130.07,30.87c.63,0,1.08.34,1.08.92,0,.62-.44.94-1.08.94s-1.06-.31-1.06-.94c0-.59.41-.92,1.06-.92Z" fill="#fff"/>
    <path d="M138.08,39.44h-3.05c-.66,0-1.01-.35-1.01-1.01v-3.44h-1.42v-1.59h1.42v-1.19l1.82-.56v1.75h1.99v1.59h-1.99v2.85h2.23v1.6Z" fill="#fff"/>
  </g>
  <g>
    <path d="M12.49,17.66l7.02-3.67h-1.08s-5.94-.01-5.94-.01v-1.82h7.62v3.68l-7.01,3.65h7.01v1.83h-7.62v-3.67Z"/>
    <path d="M24.33,14.65c2.18,0,3.48,1.22,3.48,3.28v.55h-4.92c.07.92.6,1.5,1.51,1.5.79,0,1.31-.35,1.46-.95h1.96c-.2,1.4-1.39,2.44-3.41,2.44-2.2,0-3.51-1.42-3.51-3.44s1.42-3.37,3.42-3.37ZM25.89,17.4c-.06-.84-.66-1.3-1.52-1.3s-1.4.46-1.48,1.3h3Z"/>
    <path d="M28.9,14.78h1.98v1.59c.33-1,1.21-1.72,2.63-1.72,1.65,0,2.65,1.1,2.65,3.11v3.58h-1.99v-3.29c0-1.21-.36-1.66-1.38-1.66-1.17,0-1.91.66-1.91,2.5v2.46h-1.98v-6.55Z"/>
    <path d="M12.53,24.21h3.37c2.46,0,5,.64,5,4.58s-2.55,4.59-5,4.59h-3.37v-9.17ZM15.9,31.54c1.59,0,2.91-.09,2.91-2.76s-1.34-2.76-2.91-2.76h-1.29v5.51h1.29Z"/>
    <path d="M21.88,31.65h1.83v-3.09h-1.56v-1.73h2.33c.66,0,1.05.33,1.05,1.01v3.81h1.85v1.73h-5.5v-1.73ZM24.46,24c.73,0,1.25.38,1.25,1.07s-.52,1.05-1.25,1.05-1.21-.35-1.21-1.05.48-1.07,1.21-1.07Z"/>
    <path d="M32.53,33.54c-3.13,0-4.51-1.35-4.51-3.71h2.14c0,1.39.64,1.96,2.42,1.96,1.26,0,1.79-.3,1.79-.97,0-.42-.3-.73-.95-.9l-2.95-.78c-1.55-.4-2.07-1.31-2.07-2.46,0-1.73,1.29-2.65,3.61-2.65,2.78,0,4.17,1.31,4.17,3.29h-2.14c0-1.09-.64-1.57-2-1.57-.98,0-1.5.27-1.5.9,0,.35.21.62.87.81l2.89.71c1.5.38,2.21,1.25,2.21,2.56,0,1.72-1.16,2.81-3.99,2.81Z"/>
  </g>
</svg>