<?xml version="1.0" encoding="utf-8"?>
<!-- Generator: Adobe Illustrator 27.7.0, SVG Export Plug-In . SVG Version: 6.00 Build 0)  -->
<!-- Copyright 2023 l3montree UG (haftungsbeschraenkt) -->
<svg version="1.1" id="Layer_1" xmlns="http://www.w3.org/2000/svg" xmlns:xlink="http://www.w3.org/1999/xlink" x="0px" y="0px"
	 viewBox="0 0 220.63 63.97" enable-background="new 0 0 220.63 63.97" xml:space="preserve">
<g>
	<polygon opacity="0.5" fill="#FFFFFF" enable-background="new    " points="40.35,23 0.03,23 23.41,0 63.74,0 	"/>
	<polygon opacity="0.5" fill="#FFFFFF" enable-background="new    " points="40.52,45 23.66,44.73 24.31,23 62.89,23 	"/>
	<path fill="#FFFFFF" d="M0,23h40.34v40.34C40.34,63.34,0,23.75,0,23z"/>
</g>
<g>
	<g>
		<path opacity="0.7" fill="#FFFFFF" enable-background="new    " d="M77.87,37.27v-28h5.2v28H77.87z M80.27,14.07v-4.8h16.16v4.8
			H80.27z M80.27,25.79v-4.72h14.44v4.72H80.27z"/>
		<path opacity="0.7" fill="#FFFFFF" enable-background="new    " d="M100.35,37.27V7.67h4.96v29.6H100.35z"/>
		<path opacity="0.7" fill="#FFFFFF" enable-background="new    " d="M117.67,37.67c-1.73,0-3.31-0.48-4.72-1.44
			s-2.55-2.27-3.4-3.92s-1.28-3.53-1.28-5.64s0.43-3.99,1.28-5.64s2.01-2.95,3.48-3.88s3.12-1.4,4.96-1.4
			c1.07,0,2.04,0.15,2.92,0.46s1.65,0.74,2.32,1.3s1.22,1.2,1.66,1.92s0.74,1.49,0.9,2.32l-1.08-0.28v-5.28h4.96v21.08h-5v-5.04
			l1.16-0.2c-0.19,0.72-0.53,1.42-1.02,2.1s-1.11,1.28-1.84,1.8c-0.73,0.52-1.55,0.94-2.44,1.26
			C119.64,37.51,118.68,37.67,117.67,37.67z M119.03,33.31c1.15,0,2.16-0.28,3.04-0.84s1.57-1.34,2.06-2.34s0.74-2.15,0.74-3.46
			c0-1.28-0.25-2.41-0.74-3.4s-1.18-1.76-2.06-2.32s-1.89-0.84-3.04-0.84s-2.15,0.28-3.02,0.84c-0.87,0.56-1.54,1.33-2.02,2.32
			c-0.48,0.99-0.72,2.12-0.72,3.4c0,1.31,0.24,2.46,0.72,3.46s1.15,1.78,2.02,2.34C116.88,33.03,117.88,33.31,119.03,33.31z"/>
		<path opacity="0.7" fill="#FFFFFF" enable-background="new    " d="M139.11,37.27l-7.08-21.08l5.04-0.04l4.72,15.04l-0.88-0.08
			l5.12-11.76h2.96l5.24,11.76l-1.04,0.12l4.76-15.04h5.04l-7.12,21.08h-3.52l-5.4-12.64l0.76,0.08l-5.12,12.56
			C142.59,37.27,139.11,37.27,139.11,37.27z"/>
		<path fill="#FFFFFF" d="M166.51,37.27v-28h5.2v28H166.51z M168.91,14.07v-4.8h16.16v4.8H168.91z M168.91,25.79v-4.72h14.44v4.72
			H168.91z"/>
		<path fill="#FFFFFF" d="M191.91,11.71c-0.99,0-1.75-0.25-2.3-0.74s-0.82-1.19-0.82-2.1c0-0.85,0.28-1.55,0.84-2.08
			s1.32-0.8,2.28-0.8c1.01,0,1.79,0.25,2.34,0.74s0.82,1.21,0.82,2.14c0,0.83-0.28,1.51-0.84,2.04S192.9,11.71,191.91,11.71z
			 M189.51,37.27V16.19h4.92v21.08H189.51z"/>
		<path fill="#FFFFFF" d="M197.47,37.27l8.36-11.2l2.8,3.36l-5.36,7.84H197.47z M213.31,37.27l-6-8.12l-1.12-1.52l-8.68-11.44h6.08
			l5.84,7.92l1.24,1.68l8.6,11.48H213.31z M210.67,27.43l-2.68-3.32l4.84-7.92h5.8L210.67,27.43z"/>
	</g>
	<g>
		<path fill="#FFFFFF" d="M84.23,59.35c-0.49,0-0.97-0.07-1.43-0.21c-0.46-0.14-0.88-0.33-1.26-0.58s-0.69-0.53-0.94-0.84
			c-0.25-0.31-0.41-0.64-0.48-0.98l0.67-0.25l-0.15,2.6h-2.81V43.6h2.98v7.04l-0.57-0.23c0.08-0.34,0.25-0.66,0.48-0.98
			c0.24-0.31,0.54-0.59,0.9-0.84c0.36-0.24,0.76-0.44,1.2-0.58s0.88-0.21,1.34-0.21c0.97,0,1.83,0.25,2.58,0.75
			c0.76,0.5,1.35,1.18,1.8,2.05s0.66,1.86,0.66,2.98c0,1.12-0.22,2.11-0.65,2.98c-0.43,0.87-1.03,1.55-1.77,2.05
			S85.18,59.35,84.23,59.35z M83.52,56.81c0.56,0,1.05-0.14,1.46-0.41c0.41-0.27,0.74-0.65,0.98-1.13c0.24-0.48,0.36-1.05,0.36-1.69
			c0-0.63-0.12-1.19-0.35-1.68s-0.56-0.87-0.98-1.13s-0.91-0.4-1.47-0.4c-0.56,0-1.05,0.13-1.47,0.4s-0.75,0.64-0.99,1.13
			c-0.24,0.49-0.36,1.05-0.36,1.68c0,0.64,0.12,1.21,0.36,1.69c0.24,0.48,0.57,0.86,0.99,1.13C82.47,56.67,82.96,56.81,83.52,56.81z
			"/>
		<path fill="#FFFFFF" d="M92.59,63.97l2.44-5.71l0.04,1.72l-5.42-11.95h3.38l2.71,6.41c0.11,0.24,0.22,0.51,0.33,0.83
			c0.1,0.31,0.19,0.62,0.26,0.91l-0.5,0.21c0.08-0.24,0.18-0.51,0.29-0.82c0.11-0.31,0.22-0.64,0.34-0.99l2.33-6.55h3.4l-4.66,11.11
			l-1.91,4.83H92.59z"/>
		<path fill="#FFFFFF" d="M110.65,59.14v-14.7h3.15V56.3h6.66v2.83H110.65z"/>
		<path fill="#FFFFFF" d="M127.24,59.35c-1.13,0-2.12-0.25-2.97-0.74c-0.85-0.49-1.63-1.33-2.34-2.52l2.31-1.47
			c0.32,0.49,0.65,0.89,0.98,1.2c0.33,0.31,0.68,0.53,1.04,0.67c0.36,0.14,0.74,0.21,1.13,0.21c0.42,0,0.81-0.1,1.18-0.29
			c0.36-0.2,0.65-0.47,0.87-0.83c0.22-0.36,0.33-0.77,0.33-1.23c0-0.48-0.09-0.88-0.27-1.2c-0.18-0.32-0.45-0.57-0.8-0.73
			c-0.35-0.17-0.76-0.25-1.24-0.25c-0.21,0-0.44,0.02-0.69,0.06s-0.51,0.11-0.78,0.2c-0.27,0.09-0.55,0.2-0.86,0.33l-0.74-1.93
			l3.88-4.24l0.8,0.57l-6.17-0.08v-2.71h8.84l0.57,1.16l-4.85,5.25l-0.74-0.86c0.11-0.06,0.3-0.11,0.56-0.16
			c0.26-0.05,0.5-0.07,0.72-0.07c0.64,0,1.25,0.12,1.81,0.36c0.56,0.24,1.06,0.57,1.49,0.99c0.43,0.42,0.77,0.91,1.02,1.47
			c0.24,0.56,0.37,1.16,0.37,1.81c0,0.97-0.24,1.83-0.72,2.59c-0.48,0.76-1.13,1.37-1.95,1.81
			C129.18,59.13,128.26,59.35,127.24,59.35z"/>
		<path fill="#FFFFFF" d="M134.92,59.14V48.03h2.88l0.06,2.12l-0.44,0.08c0.15-0.36,0.36-0.69,0.61-0.99s0.55-0.55,0.89-0.76
			c0.34-0.21,0.7-0.37,1.08-0.49s0.76-0.18,1.13-0.18c0.57,0,1.09,0.09,1.55,0.27s0.85,0.47,1.18,0.85s0.57,0.89,0.76,1.52
			l-0.46-0.04l0.15-0.34c0.18-0.34,0.41-0.64,0.69-0.91c0.28-0.27,0.59-0.51,0.95-0.71c0.35-0.2,0.71-0.36,1.09-0.47
			c0.38-0.11,0.75-0.17,1.11-0.17c0.87,0,1.59,0.17,2.16,0.51c0.57,0.34,1,0.86,1.29,1.54c0.29,0.69,0.43,1.53,0.43,2.52v6.74h-2.98
			v-6.53c0-0.5-0.07-0.92-0.21-1.24c-0.14-0.32-0.34-0.56-0.61-0.72c-0.27-0.16-0.61-0.24-1.03-0.24c-0.32,0-0.62,0.05-0.89,0.16
			c-0.27,0.1-0.51,0.25-0.71,0.44c-0.2,0.19-0.36,0.41-0.47,0.66s-0.17,0.53-0.17,0.84v6.64h-2.98v-6.55c0-0.46-0.07-0.86-0.22-1.19
			c-0.15-0.33-0.35-0.58-0.62-0.75c-0.27-0.17-0.59-0.25-0.99-0.25c-0.32,0-0.62,0.05-0.89,0.16c-0.27,0.1-0.51,0.25-0.7,0.44
			c-0.2,0.19-0.35,0.41-0.47,0.66c-0.12,0.25-0.18,0.52-0.18,0.82v6.66H134.92z"/>
		<path fill="#FFFFFF" d="M160.04,59.35c-1.13,0-2.15-0.25-3.04-0.75c-0.89-0.5-1.59-1.18-2.1-2.05s-0.77-1.86-0.77-2.98
			c0-1.12,0.26-2.11,0.77-2.97c0.51-0.86,1.21-1.54,2.1-2.05c0.89-0.5,1.9-0.76,3.04-0.76c1.12,0,2.12,0.25,3.01,0.76
			c0.89,0.5,1.58,1.19,2.09,2.05c0.5,0.86,0.76,1.85,0.76,2.97c0,1.12-0.25,2.11-0.76,2.98s-1.2,1.55-2.09,2.05
			C162.16,59.1,161.16,59.35,160.04,59.35z M160.04,56.74c0.55,0,1.04-0.14,1.47-0.41c0.43-0.27,0.77-0.65,1.02-1.13
			s0.37-1.03,0.37-1.63c0-0.62-0.12-1.17-0.37-1.65c-0.25-0.48-0.58-0.86-1.02-1.13c-0.43-0.27-0.92-0.41-1.47-0.41
			c-0.56,0-1.06,0.14-1.49,0.42c-0.43,0.28-0.78,0.66-1.03,1.13c-0.25,0.48-0.37,1.02-0.36,1.64c-0.01,0.6,0.1,1.14,0.36,1.63
			s0.59,0.86,1.03,1.13C158.98,56.61,159.48,56.74,160.04,56.74z"/>
		<path fill="#FFFFFF" d="M168.15,59.14V48.03H171l0.08,2.27l-0.59,0.25c0.15-0.5,0.43-0.96,0.83-1.38c0.4-0.41,0.88-0.75,1.44-1
			c0.56-0.25,1.15-0.38,1.76-0.38c0.84,0,1.54,0.17,2.11,0.5c0.57,0.34,0.99,0.84,1.28,1.52s0.43,1.52,0.43,2.51v6.8h-2.98v-6.57
			c0-0.5-0.07-0.92-0.21-1.26s-0.35-0.58-0.64-0.75s-0.64-0.23-1.06-0.2c-0.34,0-0.65,0.05-0.93,0.16c-0.29,0.1-0.53,0.25-0.73,0.45
			c-0.2,0.2-0.36,0.42-0.48,0.67s-0.18,0.53-0.18,0.82v6.68h-1.47c-0.32,0-0.61,0-0.86,0S168.33,59.14,168.15,59.14z"/>
		<path fill="#FFFFFF" d="M180.2,50.7v-2.67h7.33v2.67H180.2z M182.28,59.14V45.21h2.98v13.92H182.28z"/>
		<path fill="#FFFFFF" d="M189.48,59.14V48.03h2.88l0.1,3.57l-0.5-0.74c0.17-0.57,0.44-1.09,0.82-1.56c0.38-0.47,0.82-0.84,1.33-1.1
			c0.51-0.27,1.05-0.4,1.61-0.4c0.24,0,0.47,0.02,0.69,0.06s0.41,0.09,0.57,0.15l-0.8,3.28c-0.17-0.08-0.37-0.16-0.61-0.22
			c-0.24-0.06-0.48-0.09-0.74-0.09c-0.34,0-0.65,0.06-0.93,0.18s-0.54,0.29-0.75,0.5s-0.38,0.47-0.49,0.77
			c-0.12,0.29-0.18,0.62-0.18,0.97v5.75H189.48z"/>
		<path fill="#FFFFFF" d="M203.49,59.35c-1.2,0-2.25-0.25-3.15-0.74c-0.9-0.49-1.6-1.16-2.1-2.02c-0.5-0.85-0.76-1.83-0.76-2.94
			c0-0.85,0.14-1.64,0.42-2.35s0.67-1.33,1.18-1.86c0.5-0.53,1.1-0.93,1.8-1.22s1.45-0.43,2.26-0.43c0.76,0,1.46,0.14,2.1,0.41
			c0.64,0.27,1.2,0.66,1.67,1.16c0.47,0.5,0.83,1.08,1.08,1.75c0.25,0.67,0.36,1.41,0.34,2.21l-0.02,0.92h-8.92l-0.48-1.83h6.95
			l-0.34,0.38v-0.46c-0.03-0.38-0.15-0.72-0.37-1.03c-0.22-0.31-0.49-0.55-0.83-0.71s-0.71-0.25-1.13-0.25
			c-0.62,0-1.14,0.12-1.56,0.36c-0.43,0.24-0.75,0.59-0.98,1.05c-0.22,0.46-0.34,1.02-0.34,1.68c0,0.67,0.14,1.25,0.43,1.74
			c0.29,0.49,0.69,0.87,1.22,1.14c0.52,0.27,1.14,0.41,1.86,0.41c0.49,0,0.94-0.08,1.34-0.23c0.41-0.15,0.84-0.42,1.3-0.8l1.43,2
			c-0.41,0.36-0.85,0.67-1.34,0.91s-0.99,0.43-1.51,0.56C204.5,59.29,203.99,59.35,203.49,59.35z"/>
		<path fill="#FFFFFF" d="M215.79,59.35c-1.2,0-2.25-0.25-3.15-0.74c-0.9-0.49-1.6-1.16-2.1-2.02c-0.5-0.85-0.76-1.83-0.76-2.94
			c0-0.85,0.14-1.64,0.42-2.35s0.67-1.33,1.18-1.86c0.5-0.53,1.1-0.93,1.8-1.22s1.45-0.43,2.26-0.43c0.76,0,1.46,0.14,2.1,0.41
			c0.64,0.27,1.2,0.66,1.67,1.16c0.47,0.5,0.83,1.08,1.08,1.75c0.25,0.67,0.36,1.41,0.34,2.21l-0.02,0.92h-8.92l-0.48-1.83h6.95
			l-0.34,0.38v-0.46c-0.03-0.38-0.15-0.72-0.37-1.03c-0.22-0.31-0.49-0.55-0.83-0.71s-0.71-0.25-1.13-0.25
			c-0.62,0-1.14,0.12-1.56,0.36c-0.43,0.24-0.75,0.59-0.98,1.05c-0.22,0.46-0.34,1.02-0.34,1.68c0,0.67,0.14,1.25,0.43,1.74
			c0.29,0.49,0.69,0.87,1.22,1.14c0.52,0.27,1.14,0.41,1.86,0.41c0.49,0,0.94-0.08,1.34-0.23c0.41-0.15,0.84-0.42,1.3-0.8l1.43,2
			c-0.41,0.36-0.85,0.67-1.34,0.91s-0.99,0.43-1.51,0.56C216.81,59.29,216.3,59.35,215.79,59.35z"/>
	</g>
</g>
</svg>
