<?xml version="1.0" encoding="utf-8"?>
<!-- Generator: Adobe Illustrator 28.1.0, SVG Export Plug-In . SVG Version: 6.00 Build 0)  -->
<svg version="1.1" id="Ebene_1" xmlns="http://www.w3.org/2000/svg" xmlns:xlink="http://www.w3.org/1999/xlink" x="0px" y="0px"
	 viewBox="0 0 339.6 120" style="enable-background:new 0 0 339.6 120;" xml:space="preserve">
<style type="text/css">
	.st0{fill:#FBBE24;}
	.st1{clip-path:url(#SVGID_00000119822026972549403910000005805409862308712581_);}
	.st2{fill:#172554;}
</style>
<g>
	<path class="st0" d="M51.7,61.1L3.3,89l48.5,28l48.5-28C100.2,89,51.7,61.1,51.7,61.1z"/>
	<g>
		<g>
			<defs>
				<rect id="SVGID_1_" width="104" height="120"/>
			</defs>
			<clipPath id="SVGID_00000074410933639329852040000015078711882812977851_">
				<use xlink:href="#SVGID_1_"  style="overflow:visible;"/>
			</clipPath>
			<g style="clip-path:url(#SVGID_00000074410933639329852040000015078711882812977851_);">
				<path class="st2" d="M102.9,29.7L52.3,0.4c-0.3-0.2-0.8-0.2-1.1,0L0.5,29.6c-0.3,0.2-0.5,0.6-0.5,1V89c0,0.4,0.2,0.8,0.5,0.9
					l50.6,29.2c0.2,0.1,0.4,0.2,0.5,0.2s0.4-0.1,0.5-0.2l50.6-29.2c0.3-0.2,0.5-0.6,0.5-0.9V30.6C103.5,30.2,103.2,29.9,102.9,29.7
					L102.9,29.7L102.9,29.7z M101.3,87.1L52.8,59.2v-56l48.5,28V87.1z M51.7,117L3.3,89l48.4-27.9L100.2,89L51.7,117z"/>
			</g>
		</g>
	</g>
</g>
<g>
	<g>
		<path class="st2" d="M120,62V34.7h11.2c2,0,3.8,0.4,5.5,1c1.6,0.7,3.1,1.6,4.2,2.8c1.2,1.2,2,2.6,2.7,4.3s0.9,3.5,0.9,5.6
			c0,2-0.3,3.8-0.9,5.5s-1.5,3.2-2.7,4.4c-1.2,1.2-2.6,2.1-4.2,2.8c-1.7,0.7-3.4,1-5.5,1H120z M125.9,57.8l-0.7-1h5.8
			c1.2,0,2.2-0.2,3.2-0.7c0.9-0.4,1.8-0.9,2.4-1.7c0.7-0.7,1.2-1.6,1.5-2.6c0.4-1,0.5-2.2,0.5-3.4c0-1.3-0.2-2.4-0.5-3.4
			c-0.4-1-0.8-2-1.5-2.6c-0.7-0.7-1.5-1.3-2.4-1.7c-0.9-0.4-2-0.7-3.2-0.7h-5.9l0.7-0.9V57.8z"/>
		<path class="st2" d="M149.9,62V34.7h18.5v5.1h-12.8v17h13v5.1L149.9,62L149.9,62z M152.6,50.6v-5h13.9v5H152.6z"/>
		<path class="st2" d="M182.4,62l-10.9-27.4h6.2l5.7,14.8c0.3,0.8,0.6,1.5,0.8,2.1c0.2,0.7,0.4,1.2,0.6,1.7c0.2,0.6,0.4,1,0.5,1.6
			c0.1,0.6,0.3,1,0.5,1.7h-1.1c0.2-0.8,0.4-1.6,0.7-2.2c0.2-0.7,0.5-1.4,0.7-2.1s0.6-1.7,0.9-2.7l5.4-14.8h6.1l-11,27.4H182.4z"/>
		<path class="st2" d="M213.9,62.4c-2.1,0-4-0.4-5.8-1.1c-1.8-0.7-3.3-1.7-4.6-3c-1.3-1.3-2.2-2.8-3-4.5c-0.7-1.7-1-3.5-1-5.6
			c0-2,0.4-3.9,1.1-5.6c0.7-1.7,1.8-3.2,3.1-4.5c1.3-1.3,2.9-2.2,4.7-3s3.7-1,5.9-1c1.5,0,2.9,0.2,4.2,0.6c1.3,0.4,2.5,0.9,3.6,1.6
			c1.1,0.7,2,1.5,2.7,2.3l-3.6,3.8c-0.7-0.7-1.4-1.2-2.1-1.7c-0.7-0.5-1.5-0.8-2.3-1c-0.8-0.3-1.7-0.4-2.5-0.4
			c-1.2,0-2.3,0.2-3.4,0.7c-1,0.5-2,1-2.7,1.9c-0.7,0.7-1.4,1.7-1.9,2.8c-0.5,1-0.7,2.2-0.7,3.4s0.2,2.4,0.7,3.4
			c0.5,1.1,1.1,2,1.9,2.8c0.8,0.8,1.8,1.4,2.8,1.9c1,0.5,2.2,0.7,3.4,0.7c0.8,0,1.7-0.1,2.4-0.4c0.7-0.3,1.5-0.7,2-1.1s1-1,1.4-1.7
			c0.3-0.7,0.5-1.3,0.5-2v-0.9l0.7,1.1h-7.8V47h12.7c0,0.3,0.1,0.7,0.1,1c0,0.4,0.1,0.8,0.1,1.2c0,0.4,0,0.7,0,0.9
			c0,1.8-0.3,3.4-0.9,4.8c-0.7,1.5-1.5,2.8-2.7,3.8c-1.1,1-2.5,1.9-4,2.5C217.3,62.1,215.8,62.4,213.9,62.4z"/>
		<path class="st2" d="M242.9,62.3c-2.2,0-4.2-0.5-6-1.4c-1.8-0.9-3.1-2.2-4.1-3.8c-1-1.6-1.5-3.4-1.5-5.5V34.7h5.9v16.6
			c0,1.1,0.3,2,0.7,3c0.5,0.8,1.2,1.6,2,2c0.8,0.6,1.8,0.7,2.8,0.7c1,0,2-0.3,2.9-0.7c0.8-0.6,1.6-1.2,2-2c0.5-0.8,0.7-1.9,0.7-3
			V34.7h5.7v16.8c0,2-0.5,3.9-1.5,5.5c-1,1.7-2.3,2.9-4.1,3.8C247.1,61.8,245.2,62.3,242.9,62.3z"/>
		<path class="st2" d="M257.3,62L268,34.7h5.2L283.9,62h-6l-5.5-14.7c-0.2-0.4-0.4-0.9-0.6-1.6c-0.2-0.7-0.5-1.3-0.7-2
			c-0.3-0.7-0.5-1.4-0.7-2s-0.4-1.2-0.5-1.7h1c-0.2,0.6-0.4,1.2-0.6,1.9s-0.4,1.3-0.7,2c-0.2,0.7-0.5,1.3-0.7,2
			c-0.3,0.7-0.5,1.2-0.7,1.9L263,62.2h-5.8V62z M262.2,56.4l2-4.7h12.6l2,4.7H262.2z"/>
		<path class="st2" d="M287.7,62V34.7h12.1c1.7,0,3.3,0.4,4.7,1.1c1.4,0.7,2.5,1.8,3.3,3.1c0.8,1.3,1.2,2.8,1.2,4.5
			s-0.4,3.2-1.2,4.5c-0.8,1.3-1.9,2.4-3.3,3.2c-1.4,0.7-2.9,1.2-4.7,1.2h-6.4v9.8L287.7,62L287.7,62z M293.4,47.5h6.1
			c0.7,0,1.3-0.2,1.9-0.5c0.6-0.4,0.9-0.7,1.2-1.4c0.3-0.6,0.5-1.2,0.5-2s-0.2-1.5-0.5-2c-0.4-0.6-0.8-1-1.5-1.3
			c-0.7-0.3-1.4-0.5-2.2-0.5h-5.4L293.4,47.5L293.4,47.5z M303.2,62l-7-12.4l6-0.9l7.7,13.4L303.2,62z"/>
		<path class="st2" d="M315.1,62V34.7h11.3c2,0,3.8,0.4,5.5,1c1.6,0.7,3.1,1.6,4.2,2.8c1.2,1.2,2,2.6,2.7,4.3
			c0.7,1.7,0.9,3.5,0.9,5.6c0,2-0.3,3.8-0.9,5.5s-1.5,3.2-2.7,4.4c-1.2,1.2-2.6,2.1-4.2,2.8c-1.7,0.7-3.4,1-5.5,1H315.1z
			 M320.9,57.8l-0.7-1h5.8c1.2,0,2.2-0.2,3.2-0.7c0.9-0.4,1.8-0.9,2.4-1.7c0.7-0.7,1.2-1.6,1.5-2.6c0.4-1,0.5-2.2,0.5-3.4
			c0-1.3-0.2-2.4-0.5-3.4c-0.4-1-0.8-2-1.5-2.6c-0.7-0.7-1.5-1.3-2.4-1.7c-0.9-0.4-2-0.7-3.2-0.7h-5.9l0.7-0.9V57.8z"/>
	</g>
	<path class="st2" d="M119.9,84.6V67.5h6.4c1,0,1.9,0.2,2.7,0.6c0.8,0.3,1.3,0.8,1.7,1.4c0.3,0.7,0.6,1.3,0.6,2.2
		c0,0.8-0.2,1.4-0.7,2c-0.4,0.6-1,1-1.8,1.3v0.3c1.1,0.2,2,0.8,2.6,1.6c0.6,0.8,0.9,1.7,0.9,2.8c0,1.6-0.4,2.8-1.4,3.7
		c-1,0.9-2.3,1.3-4.1,1.3L119.9,84.6L119.9,84.6z M126.3,74.7c0.9,0,1.7-0.2,2.2-0.8c0.6-0.4,0.8-1.2,0.8-2c0-0.9-0.2-1.6-0.8-2
		c-0.4-0.4-1.2-0.7-2.2-0.7H122v5.6L126.3,74.7L126.3,74.7L126.3,74.7z M126.8,82.9c2.4,0,3.7-1.1,3.7-3.3c0-2.2-1.2-3.3-3.7-3.3
		H122v6.6h4.8V82.9z"/>
	<path class="st2" d="M145.9,84.6h-2v-6.8L138,67.4h2.2l4.6,8h0.3l4.6-8h2.1l-5.9,10.5V84.6z"/>
	<path class="st2" d="M170.3,67.5v15.5h8.2v1.7h-10.2V67.5H170.3L170.3,67.5z"/>
	<path class="st2" d="M189.7,84.9c-1.7,0-3-0.3-4-1.1c-1-0.8-1.6-1.8-1.9-3.1l1.6-0.7h0.2c0.3,1,0.8,1.8,1.3,2.3
		c0.7,0.4,1.6,0.8,2.7,0.8s2.1-0.2,2.8-0.8c0.7-0.6,1-1.3,1-2.4s-0.3-1.9-1-2.4c-0.7-0.6-1.7-0.9-3-0.9h-1.9v-1.7h1.7
		c1.1,0,1.9-0.2,2.6-0.8s1-1.3,1-2.2s-0.2-1.6-0.8-2.1c-0.6-0.4-1.3-0.7-2.3-0.7c-1.8,0-2.9,0.7-3.7,2h-0.2l-1.1-1.2
		c0.4-0.8,1.1-1.4,2-1.9c0.9-0.4,1.9-0.8,3.1-0.8c1.1,0,2,0.2,2.8,0.6s1.3,0.9,1.8,1.4c0.4,0.7,0.7,1.4,0.7,2.3s-0.2,1.6-0.8,2.2
		c-0.4,0.7-1.1,1.1-1.9,1.4v0.2c1.1,0.2,2,0.8,2.6,1.6c0.6,0.8,0.9,1.7,0.9,2.8c0,1.7-0.4,2.9-1.4,3.8
		C193.3,84.5,191.6,84.8,189.7,84.9L189.7,84.9L189.7,84.9z"/>
	<path class="st2" d="M205.1,84.6h-1.9V67.5h3l5.2,14.5h0.2l5.2-14.5h2.9v17.1h-1.9v-14h-0.2l-5.1,14h-2l-5.1-14h-0.3L205.1,84.6
		L205.1,84.6L205.1,84.6z"/>
	<path class="st2" d="M235.4,84.9c-1.4,0-2.8-0.3-4-1c-1.1-0.7-2.1-1.7-2.8-3c-0.7-1.3-1-3-1-4.9c0-1.9,0.3-3.6,1-4.9
		c0.7-1.3,1.6-2.3,2.8-3c1.1-0.7,2.4-1,4-1c1.6,0,2.8,0.3,4,1c1.1,0.7,2.1,1.7,2.7,3c0.7,1.3,1,3,1,4.9c0,1.9-0.3,3.6-1,4.9
		c-0.7,1.3-1.6,2.3-2.7,3C238.2,84.6,236.9,84.9,235.4,84.9z M235.4,83c1.8,0,3.1-0.6,4.1-1.7s1.4-2.9,1.4-5.3
		c0-2.4-0.4-4.1-1.4-5.2s-2.3-1.7-4.1-1.7c-3.7,0-5.6,2.3-5.6,6.9C229.9,80.6,231.8,83,235.4,83z"/>
	<path class="st2" d="M253.1,84.6h-1.9V67.5h2.4l8.3,13.1h0.2V67.5h2v17.1h-2.1l-8.7-14h-0.2L253.1,84.6L253.1,84.6L253.1,84.6z"/>
	<path class="st2" d="M283.9,67.5v1.7h-5.3v15.5h-2V69.3h-5.3v-1.7h12.7V67.5z"/>
	<path class="st2" d="M290.9,84.6V67.5h6.2c1.1,0,2.1,0.2,2.9,0.6c0.8,0.3,1.3,0.9,1.8,1.6c0.4,0.7,0.6,1.4,0.6,2.4
		c0,1.1-0.2,2-0.8,2.7s-1.3,1.2-2.4,1.6v0.2c0.6,0.2,1,0.6,1.3,1c0.3,0.4,0.7,1.2,1,2.1l1.6,4.9h-2.1l-1.7-5.2
		c-0.2-0.7-0.4-1.1-0.7-1.4c-0.2-0.3-0.6-0.7-1-0.8c-0.4-0.1-0.9-0.2-1.6-0.2h-3v7.7L290.9,84.6L290.9,84.6L290.9,84.6z M297,75.3
		c1.1,0,1.9-0.2,2.3-0.8c0.6-0.4,0.8-1.2,0.8-2.2s-0.2-1.8-0.8-2.2c-0.6-0.4-1.3-0.8-2.3-0.8h-4.1v6L297,75.3L297,75.3z"/>
	<path class="st2" d="M312.5,76.6V83h8.7v1.7h-10.7V67.5h10.6v1.7h-8.6v5.7h7.6v1.7L312.5,76.6L312.5,76.6z"/>
	<path class="st2" d="M330.7,76.6V83h8.7v1.7h-10.7V67.5h10.6v1.7h-8.6v5.7h7.6v1.7L330.7,76.6L330.7,76.6z"/>
</g>
</svg>
