<?xml version="1.0" encoding="utf-8"?>
<!-- Generator: Adobe Illustrator 28.1.0, SVG Export Plug-In . SVG Version: 6.00 Build 0)  -->
<svg version="1.1" id="Ebene_1" xmlns="http://www.w3.org/2000/svg" xmlns:xlink="http://www.w3.org/1999/xlink" x="0px" y="0px"
	 viewBox="0 0 341.6 119.1" style="enable-background:new 0 0 341.6 119.1;" xml:space="preserve">
<style type="text/css">
	.st0{fill:#FBBE24;}
	.st1{fill:#FFFFFF;}
</style>
<g>
	<path class="st0" d="M51.7,60.8L3.3,88.8l48.5,28l48.4-28L51.7,60.8z"/>
	<path class="st1" d="M102.9,29.4L52.3,0.2c-0.3-0.2-0.8-0.2-1.1,0L0.5,29.4C0.2,29.6,0,29.9,0,30.3v58.4c0,0.4,0.2,0.8,0.5,0.9
		l50.6,29.2c0.2,0.1,0.4,0.2,0.5,0.2s0.4-0.1,0.5-0.2l50.6-29.2c0.3-0.2,0.5-0.6,0.5-0.9V30.3C103.5,29.9,103.2,29.6,102.9,29.4
		L102.9,29.4L102.9,29.4z M101.3,87L52.8,59V3l48.4,28V87H101.3z M51.7,116.8l-48.4-28l48.4-27.9l48.4,27.9
		C100.2,88.9,51.7,116.8,51.7,116.8z"/>
</g>
<g>
	<g>
		<path class="st1" d="M122,61.8V34.4h11.2c2,0,3.8,0.4,5.5,1c1.6,0.7,3.1,1.6,4.2,2.8c1.2,1.2,2,2.6,2.7,4.3
			c0.7,1.7,0.9,3.5,0.9,5.6c0,2-0.3,3.8-0.9,5.5c-0.7,1.7-1.5,3.2-2.7,4.4c-1.2,1.2-2.6,2.1-4.2,2.8c-1.7,0.7-3.4,1-5.5,1H122z
			 M127.8,57.6l-0.7-1h5.8c1.2,0,2.2-0.2,3.2-0.7c0.9-0.4,1.8-0.9,2.4-1.7c0.7-0.7,1.2-1.6,1.5-2.6c0.4-1,0.5-2.2,0.5-3.4
			c0-1.3-0.2-2.4-0.5-3.4c-0.4-1-0.8-2-1.5-2.6c-0.7-0.7-1.5-1.3-2.4-1.7s-2-0.7-3.2-0.7h-5.9l0.7-0.9V57.6z"/>
		<path class="st1" d="M151.8,61.8V34.4h18.5v5.1h-12.8v17h13v5.1L151.8,61.8L151.8,61.8z M154.5,50.3v-5h13.9v5H154.5z"/>
		<path class="st1" d="M184.4,61.8l-10.9-27.4h6.2l5.7,14.8c0.3,0.8,0.6,1.5,0.8,2.1c0.2,0.7,0.4,1.2,0.6,1.7c0.2,0.6,0.4,1,0.5,1.6
			c0.1,0.6,0.3,1,0.5,1.7h-1.1c0.2-0.8,0.4-1.6,0.7-2.2c0.2-0.7,0.5-1.4,0.7-2.1c0.3-0.7,0.6-1.7,0.9-2.7l5.4-14.8h6.1l-11,27.4
			H184.4z"/>
		<path class="st1" d="M215.9,62.1c-2.1,0-4-0.4-5.8-1.1c-1.8-0.7-3.3-1.7-4.6-3c-1.3-1.3-2.2-2.8-3-4.5c-0.7-1.7-1-3.5-1-5.6
			c0-2,0.4-3.9,1.1-5.6s1.8-3.2,3.1-4.5c1.3-1.3,2.9-2.2,4.7-3c1.8-0.7,3.7-1,5.9-1c1.5,0,2.9,0.2,4.2,0.6s2.5,0.9,3.6,1.6
			c1.1,0.7,2,1.5,2.7,2.3l-3.6,3.8c-0.7-0.7-1.4-1.2-2.1-1.7c-0.7-0.5-1.5-0.8-2.3-1c-0.8-0.3-1.7-0.4-2.5-0.4
			c-1.2,0-2.3,0.2-3.4,0.7c-1,0.5-2,1-2.7,1.9c-0.7,0.7-1.4,1.7-1.9,2.8c-0.5,1-0.7,2.2-0.7,3.4s0.2,2.4,0.7,3.4
			c0.5,1.1,1.1,2,1.9,2.8c0.8,0.8,1.8,1.4,2.8,1.9s2.2,0.7,3.4,0.7c0.8,0,1.7-0.1,2.4-0.4c0.7-0.3,1.5-0.7,2-1.1
			c0.6-0.5,1-1,1.4-1.7c0.3-0.7,0.5-1.3,0.5-2v-0.9l0.7,1.1h-7.8v-4.8h12.7c0,0.3,0.1,0.7,0.1,1c0,0.4,0.1,0.8,0.1,1.2
			c0,0.4,0,0.7,0,0.9c0,1.8-0.3,3.4-0.9,4.8c-0.7,1.5-1.5,2.8-2.7,3.8c-1.1,1-2.5,1.9-4,2.5C219.3,61.8,217.7,62.1,215.9,62.1z"/>
		<path class="st1" d="M244.9,62c-2.2,0-4.2-0.5-6-1.4c-1.8-0.9-3.1-2.2-4.1-3.8c-1-1.6-1.5-3.4-1.5-5.5V34.4h5.9V51
			c0,1.1,0.3,2,0.7,3c0.5,0.8,1.2,1.6,2,2c0.8,0.6,1.8,0.7,2.8,0.7s2-0.3,2.9-0.7c0.8-0.6,1.6-1.2,2-2c0.5-0.8,0.7-1.9,0.7-3V34.4
			h5.7v16.8c0,2-0.5,3.9-1.5,5.5c-1,1.7-2.3,2.9-4.1,3.8C249.1,61.6,247.1,62,244.9,62z"/>
		<path class="st1" d="M259.2,61.8l10.7-27.4h5.2l10.7,27.4h-6L274.3,47c-0.2-0.4-0.4-0.9-0.6-1.6c-0.2-0.7-0.5-1.3-0.7-2
			c-0.3-0.7-0.5-1.4-0.7-2s-0.4-1.2-0.5-1.7h1c-0.2,0.6-0.4,1.2-0.6,1.9s-0.4,1.3-0.7,2c-0.2,0.7-0.5,1.3-0.7,2
			c-0.3,0.7-0.5,1.2-0.7,1.9L265,61.9h-5.8V61.8z M264.2,56.1l2-4.7h12.6l2,4.7H264.2z"/>
		<path class="st1" d="M289.7,61.8V34.4h12.1c1.7,0,3.3,0.4,4.7,1.1c1.4,0.7,2.5,1.8,3.3,3.1c0.8,1.3,1.2,2.8,1.2,4.5
			s-0.4,3.2-1.2,4.5c-0.8,1.3-1.9,2.4-3.3,3.2c-1.4,0.7-2.9,1.2-4.7,1.2h-6.4v9.8L289.7,61.8L289.7,61.8z M295.3,47.2h6.1
			c0.7,0,1.3-0.2,1.9-0.5c0.6-0.4,0.9-0.7,1.2-1.4c0.3-0.6,0.5-1.2,0.5-2s-0.2-1.5-0.5-2c-0.4-0.6-0.8-1-1.5-1.3
			c-0.7-0.3-1.4-0.5-2.2-0.5h-5.4L295.3,47.2L295.3,47.2z M305.2,61.8l-7-12.4l6-0.9l7.7,13.4L305.2,61.8z"/>
		<path class="st1" d="M317,61.8V34.4h11.3c2,0,3.8,0.4,5.5,1c1.6,0.7,3.1,1.6,4.2,2.8c1.2,1.2,2,2.6,2.7,4.3
			c0.7,1.7,0.9,3.5,0.9,5.6c0,2-0.3,3.8-0.9,5.5s-1.5,3.2-2.7,4.4c-1.2,1.2-2.6,2.1-4.2,2.8c-1.7,0.7-3.4,1-5.5,1H317z M322.9,57.6
			l-0.7-1h5.8c1.2,0,2.2-0.2,3.2-0.7c0.9-0.4,1.8-0.9,2.4-1.7c0.7-0.7,1.2-1.6,1.5-2.6c0.4-1,0.5-2.2,0.5-3.4c0-1.3-0.2-2.4-0.5-3.4
			c-0.4-1-0.8-2-1.5-2.6c-0.7-0.7-1.5-1.3-2.4-1.7s-2-0.7-3.2-0.7h-5.9l0.7-0.9V57.6z"/>
	</g>
	<path class="st1" d="M121.9,84.3V67.2h6.4c1,0,1.9,0.2,2.7,0.6c0.8,0.3,1.3,0.8,1.7,1.4c0.3,0.7,0.6,1.3,0.6,2.2
		c0,0.8-0.2,1.4-0.7,2s-1,1-1.8,1.3v0.3c1.1,0.2,2,0.8,2.6,1.6c0.6,0.8,0.9,1.7,0.9,2.8c0,1.6-0.4,2.8-1.4,3.7s-2.3,1.3-4.1,1.3
		L121.9,84.3L121.9,84.3z M128.3,74.4c0.9,0,1.7-0.2,2.2-0.8c0.6-0.4,0.8-1.2,0.8-2c0-0.9-0.2-1.6-0.8-2c-0.4-0.4-1.2-0.7-2.2-0.7
		H124v5.6L128.3,74.4L128.3,74.4L128.3,74.4z M128.8,82.7c2.4,0,3.7-1.1,3.7-3.3c0-2.2-1.2-3.3-3.7-3.3H124v6.6h4.8V82.7z"/>
	<path class="st1" d="M147.9,84.3h-2v-6.8L140,67.1h2.2l4.6,8h0.3l4.6-8h2.1l-5.9,10.5V84.3z"/>
	<path class="st1" d="M172.2,67.2v15.5h8.2v1.7h-10.2V67.2H172.2L172.2,67.2z"/>
	<path class="st1" d="M191.7,84.7c-1.7,0-3-0.3-4-1.1c-1-0.8-1.6-1.8-1.9-3.1l1.6-0.7h0.2c0.3,1,0.8,1.8,1.3,2.3
		c0.7,0.4,1.6,0.8,2.7,0.8s2.1-0.2,2.8-0.8s1-1.3,1-2.4s-0.3-1.9-1-2.4c-0.7-0.6-1.7-0.9-3-0.9h-1.9v-1.7h1.7c1.1,0,1.9-0.2,2.6-0.8
		s1-1.3,1-2.2s-0.2-1.6-0.8-2.1c-0.6-0.4-1.3-0.7-2.3-0.7c-1.8,0-2.9,0.7-3.7,2h-0.2l-1.1-1.2c0.4-0.8,1.1-1.4,2-1.9
		c0.9-0.4,1.9-0.8,3.1-0.8c1.1,0,2,0.2,2.8,0.6c0.8,0.3,1.3,0.9,1.8,1.4c0.4,0.7,0.7,1.4,0.7,2.3s-0.2,1.6-0.8,2.2
		c-0.4,0.7-1.1,1.1-1.9,1.4v0.2c1.1,0.2,2,0.8,2.6,1.6c0.6,0.8,0.9,1.7,0.9,2.8c0,1.7-0.4,2.9-1.4,3.8
		C195.2,84.2,193.6,84.6,191.7,84.7L191.7,84.7L191.7,84.7z"/>
	<path class="st1" d="M207,84.3h-1.9V67.2h3l5.2,14.5h0.2l5.2-14.5h2.9v17.1h-1.9v-14h-0.2l-5.1,14h-2l-5.1-14H207L207,84.3
		L207,84.3L207,84.3z"/>
	<path class="st1" d="M237.4,84.7c-1.4,0-2.8-0.3-4-1c-1.1-0.7-2.1-1.7-2.8-3c-0.7-1.3-1-3-1-4.9c0-1.9,0.3-3.6,1-4.9
		c0.7-1.3,1.6-2.3,2.8-3c1.1-0.7,2.4-1,4-1c1.6,0,2.8,0.3,4,1c1.1,0.7,2.1,1.7,2.7,3c0.7,1.3,1,3,1,4.9c0,1.9-0.3,3.6-1,4.9
		c-0.7,1.3-1.6,2.3-2.7,3C240.2,84.3,238.8,84.7,237.4,84.7z M237.4,82.8c1.8,0,3.1-0.6,4.1-1.7s1.4-2.9,1.4-5.3
		c0-2.4-0.4-4.1-1.4-5.2c-1-1.1-2.3-1.7-4.1-1.7c-3.7,0-5.6,2.3-5.6,6.9C231.8,80.3,233.7,82.8,237.4,82.8z"/>
	<path class="st1" d="M255.1,84.3h-1.9V67.2h2.4l8.3,13.1h0.2V67.2h2v17.1h-2.1l-8.7-14h-0.2L255.1,84.3L255.1,84.3L255.1,84.3z"/>
	<path class="st1" d="M285.9,67.2v1.7h-5.3v15.5h-2V69h-5.3v-1.7h12.7V67.2z"/>
	<path class="st1" d="M292.9,84.3V67.2h6.2c1.1,0,2.1,0.2,2.9,0.6c0.8,0.3,1.3,0.9,1.8,1.6s0.6,1.4,0.6,2.4c0,1.1-0.2,2-0.8,2.7
		c-0.6,0.7-1.3,1.2-2.4,1.6v0.2c0.6,0.2,1,0.6,1.3,1c0.3,0.4,0.7,1.2,1,2.1l1.6,4.9h-2.1l-1.7-5.2c-0.2-0.7-0.4-1.1-0.7-1.4
		c-0.2-0.3-0.6-0.7-1-0.8c-0.4-0.1-0.9-0.2-1.6-0.2h-3v7.7L292.9,84.3L292.9,84.3L292.9,84.3z M299,75c1.1,0,1.9-0.2,2.3-0.8
		c0.6-0.4,0.8-1.2,0.8-2.2s-0.2-1.8-0.8-2.2c-0.6-0.4-1.3-0.8-2.3-0.8h-4.1v6L299,75L299,75z"/>
	<path class="st1" d="M314.5,76.3v6.4h8.7v1.7h-10.7V67.2H323v1.7h-8.6v5.7h7.6v1.7L314.5,76.3L314.5,76.3z"/>
	<path class="st1" d="M332.7,76.3v6.4h8.7v1.7h-10.7V67.2h10.6v1.7h-8.6v5.7h7.6v1.7L332.7,76.3L332.7,76.3z"/>
</g>
</svg>
